<?xml version="1.0" encoding="utf-8"?>
<!-- Generator: Adobe Illustrator 27.0.0, SVG Export Plug-In . SVG Version: 6.00 Build 0)  -->
<svg version="1.1" id="Layer_1" xmlns="http://www.w3.org/2000/svg" xmlns:xlink="http://www.w3.org/1999/xlink" x="0px" y="0px"
	 viewBox="0 0 598.9 517" style="enable-background:new 0 0 598.9 517;" xml:space="preserve">
<style type="text/css">
	.st0{fill:none;stroke:#DBDBDB;stroke-width:2;stroke-miterlimit:10;}
	.st1{fill:none;stroke:#000000;stroke-width:9;stroke-linejoin:round;stroke-miterlimit:10;}
	.st2{fill:none;stroke:#000000;stroke-width:3;stroke-linecap:round;stroke-linejoin:round;stroke-miterlimit:10;}
	.st3{fill:#129AF7;}
	
		.st4{clip-path:url(#SVGID_00000018918079742750732260000017805785747969901215_);fill:url(#SVGID_00000136379459645759186000000014332681921679564207_);}
	.st5{clip-path:url(#SVGID_00000018918079742750732260000017805785747969901215_);fill:#F3F3F5;}
	.st6{fill:#FFFFFF;}
	.st7{fill:#CBD5DC;}
	.st8{fill:#98A9B4;}
	.st9{fill:#99A9B4;}
	.st10{fill:#E0E7EC;}
	.st11{fill:#E65A70;}
</style>
<line id="Nav_x5F_Bar_x5F_Line" class="st0" x1="73.7" y1="124.4" x2="529.8" y2="124.4"/>
<path id="Device_x5F_Frame" class="st1" d="M69.9,513v-437c0-14.6,11.8-26.4,26.4-26.4h408.9c14.6,0,26.4,11.8,26.4,26.4v437"/>
<g id="Top_x5F_Left_x5F_Profile">
	<g>
		<g>
			<line class="st2" x1="110.3" y1="90.8" x2="92.5" y2="90.8"/>
			<polyline class="st2" points="99,82.8 91.2,90.5 99.4,98.7 			"/>
		</g>
	</g>
	<g>
		<path d="M185.4,98.2c-0.7,0-1.3-0.1-1.9-0.2c-0.6-0.1-1.2-0.3-1.7-0.5s-1-0.5-1.5-0.8c-0.2-0.1-0.3-0.3-0.4-0.5
			c-0.1-0.2-0.1-0.4-0.1-0.5c0-0.2,0.1-0.3,0.2-0.4c0.1-0.1,0.3-0.2,0.4-0.2c0.2,0,0.3,0,0.5,0.2c0.6,0.4,1.3,0.7,2,0.9
			c0.7,0.2,1.5,0.3,2.3,0.3c1.2,0,2.1-0.2,2.7-0.7c0.6-0.4,0.9-1,0.9-1.7c0-0.6-0.2-1.1-0.6-1.4c-0.4-0.3-1.1-0.6-2.1-0.8l-2.2-0.5
			c-1.3-0.3-2.3-0.7-2.9-1.4c-0.6-0.6-1-1.5-1-2.6c0-0.7,0.1-1.2,0.4-1.8c0.3-0.5,0.6-1,1.1-1.4c0.5-0.4,1.1-0.7,1.7-0.9
			c0.7-0.2,1.4-0.3,2.2-0.3c0.9,0,1.7,0.1,2.4,0.4c0.8,0.2,1.4,0.6,2,1c0.2,0.1,0.3,0.3,0.3,0.4c0.1,0.2,0.1,0.3,0,0.5
			c0,0.2-0.1,0.3-0.2,0.4c-0.1,0.1-0.3,0.2-0.4,0.2c-0.2,0-0.4,0-0.6-0.2c-0.6-0.4-1.1-0.7-1.7-0.8s-1.2-0.3-1.9-0.3
			c-0.7,0-1.3,0.1-1.8,0.3c-0.5,0.2-0.9,0.5-1.2,0.9c-0.3,0.4-0.4,0.9-0.4,1.4c0,0.6,0.2,1.1,0.6,1.5c0.4,0.4,1,0.6,2,0.8l2.2,0.4
			c1.4,0.3,2.4,0.7,3.1,1.3c0.7,0.6,1,1.4,1,2.4c0,0.6-0.1,1.2-0.4,1.7c-0.3,0.5-0.6,1-1.1,1.3c-0.5,0.4-1,0.7-1.7,0.9
			S186.2,98.2,185.4,98.2z"/>
		<path d="M197.5,98.2c-1,0-1.9-0.2-2.6-0.6c-0.7-0.4-1.3-1-1.7-1.8c-0.4-0.8-0.6-1.7-0.6-2.8c0-0.8,0.1-1.5,0.3-2.2s0.6-1.2,1-1.7
			c0.4-0.5,0.9-0.8,1.5-1c0.6-0.2,1.3-0.4,2-0.4c1,0,1.9,0.2,2.6,0.6c0.7,0.4,1.3,1,1.7,1.8c0.4,0.8,0.6,1.7,0.6,2.8
			c0,0.8-0.1,1.5-0.3,2.2c-0.2,0.7-0.6,1.2-1,1.7s-0.9,0.8-1.5,1C198.9,98.1,198.2,98.2,197.5,98.2z M197.5,96.7
			c0.6,0,1.1-0.1,1.6-0.4s0.8-0.7,1-1.3c0.2-0.6,0.4-1.2,0.4-2.1c0-1.2-0.3-2.1-0.8-2.8c-0.5-0.6-1.3-1-2.2-1
			c-0.6,0-1.1,0.1-1.6,0.4c-0.5,0.3-0.8,0.7-1,1.3c-0.2,0.6-0.4,1.2-0.4,2.1c0,1.2,0.3,2.2,0.8,2.8S196.6,96.7,197.5,96.7z"/>
		<path d="M205.8,98.2c-0.3,0-0.5-0.1-0.7-0.2c-0.2-0.2-0.2-0.4-0.2-0.7v-8.5c0-0.3,0.1-0.6,0.2-0.7c0.2-0.2,0.4-0.2,0.7-0.2
			s0.5,0.1,0.7,0.2c0.2,0.2,0.2,0.4,0.2,0.7v1.8l-0.2-0.4c0.3-0.8,0.7-1.4,1.3-1.8c0.6-0.4,1.3-0.6,2.1-0.6c0.9,0,1.6,0.2,2.1,0.6
			c0.5,0.4,0.9,1,1.1,1.9h-0.3c0.2-0.8,0.7-1.4,1.3-1.8s1.4-0.7,2.3-0.7c0.8,0,1.4,0.1,1.9,0.4c0.5,0.3,0.9,0.7,1.1,1.3
			c0.2,0.6,0.4,1.3,0.4,2.3v5.4c0,0.3-0.1,0.6-0.2,0.7c-0.2,0.2-0.4,0.2-0.7,0.2c-0.3,0-0.5-0.1-0.7-0.2c-0.2-0.2-0.2-0.4-0.2-0.7
			v-5.4c0-0.9-0.2-1.5-0.5-2c-0.3-0.4-0.8-0.6-1.5-0.6c-0.8,0-1.4,0.3-1.9,0.8s-0.7,1.3-0.7,2.3v4.9c0,0.3-0.1,0.6-0.2,0.7
			c-0.2,0.2-0.4,0.2-0.7,0.2c-0.3,0-0.5-0.1-0.7-0.2c-0.2-0.2-0.2-0.4-0.2-0.7v-5.4c0-0.9-0.2-1.5-0.5-2c-0.3-0.4-0.8-0.6-1.5-0.6
			c-0.8,0-1.4,0.3-1.9,0.8s-0.7,1.3-0.7,2.3v4.9C206.8,97.8,206.4,98.2,205.8,98.2z"/>
		<path d="M227.4,98.2c-1.1,0-2-0.2-2.8-0.6c-0.8-0.4-1.4-1-1.8-1.8c-0.4-0.8-0.6-1.7-0.6-2.8c0-1.1,0.2-2,0.6-2.8
			c0.4-0.8,1-1.4,1.7-1.9s1.6-0.7,2.5-0.7c0.7,0,1.3,0.1,1.8,0.3c0.5,0.2,1,0.6,1.4,1c0.4,0.4,0.7,1,0.9,1.6
			c0.2,0.6,0.3,1.3,0.3,2.1c0,0.2-0.1,0.4-0.2,0.5s-0.3,0.2-0.6,0.2h-7.1v-1.2h6.6l-0.4,0.3c0-0.7-0.1-1.3-0.3-1.8
			c-0.2-0.5-0.5-0.9-0.9-1.2c-0.4-0.3-0.9-0.4-1.5-0.4c-0.7,0-1.2,0.2-1.7,0.5c-0.5,0.3-0.8,0.7-1.1,1.3c-0.2,0.6-0.4,1.2-0.4,1.9
			v0.1c0,1.2,0.3,2.2,0.9,2.8c0.6,0.6,1.5,1,2.6,1c0.4,0,0.9-0.1,1.4-0.2c0.5-0.1,0.9-0.3,1.3-0.6c0.2-0.1,0.4-0.2,0.6-0.2
			c0.2,0,0.3,0.1,0.4,0.2s0.2,0.2,0.2,0.4s0,0.3-0.1,0.5c-0.1,0.2-0.2,0.3-0.4,0.4c-0.5,0.3-1,0.6-1.6,0.7
			C228.6,98.1,228,98.2,227.4,98.2z"/>
		<path d="M238.1,98.2c-1,0-1.9-0.2-2.6-0.6c-0.7-0.4-1.3-1-1.7-1.8c-0.4-0.8-0.6-1.7-0.6-2.8c0-0.8,0.1-1.5,0.3-2.2s0.6-1.2,1-1.7
			c0.4-0.5,0.9-0.8,1.5-1c0.6-0.2,1.3-0.4,2-0.4c1,0,1.9,0.2,2.6,0.6c0.7,0.4,1.3,1,1.7,1.8c0.4,0.8,0.6,1.7,0.6,2.8
			c0,0.8-0.1,1.5-0.3,2.2c-0.2,0.7-0.6,1.2-1,1.7s-0.9,0.8-1.5,1C239.6,98.1,238.9,98.2,238.1,98.2z M238.1,96.7
			c0.6,0,1.1-0.1,1.6-0.4s0.8-0.7,1-1.3c0.2-0.6,0.4-1.2,0.4-2.1c0-1.2-0.3-2.1-0.8-2.8c-0.5-0.6-1.3-1-2.2-1
			c-0.6,0-1.1,0.1-1.6,0.4c-0.5,0.3-0.8,0.7-1,1.3c-0.2,0.6-0.4,1.2-0.4,2.1c0,1.2,0.3,2.2,0.8,2.8S237.2,96.7,238.1,96.7z"/>
		<path d="M246.4,98.2c-0.3,0-0.5-0.1-0.7-0.2c-0.2-0.2-0.2-0.4-0.2-0.7v-8.5c0-0.3,0.1-0.6,0.2-0.7c0.2-0.2,0.4-0.2,0.7-0.2
			s0.5,0.1,0.7,0.2c0.2,0.2,0.2,0.4,0.2,0.7v1.7l-0.2-0.3c0.3-0.8,0.8-1.4,1.4-1.8c0.7-0.4,1.4-0.6,2.3-0.6c0.8,0,1.5,0.1,2,0.4
			c0.5,0.3,0.9,0.7,1.2,1.3c0.3,0.6,0.4,1.4,0.4,2.3v5.4c0,0.3-0.1,0.6-0.2,0.7c-0.2,0.2-0.4,0.2-0.7,0.2c-0.3,0-0.5-0.1-0.7-0.2
			c-0.2-0.2-0.2-0.4-0.2-0.7v-5.3c0-0.9-0.2-1.6-0.5-2c-0.3-0.4-0.9-0.6-1.7-0.6c-0.9,0-1.6,0.3-2.1,0.8c-0.5,0.5-0.8,1.3-0.8,2.2
			v4.9C247.4,97.8,247.1,98.2,246.4,98.2z"/>
		<path d="M262,98.2c-1.1,0-2-0.2-2.8-0.6c-0.8-0.4-1.4-1-1.8-1.8c-0.4-0.8-0.6-1.7-0.6-2.8c0-1.1,0.2-2,0.6-2.8
			c0.4-0.8,1-1.4,1.7-1.9s1.6-0.7,2.5-0.7c0.7,0,1.3,0.1,1.8,0.3c0.5,0.2,1,0.6,1.4,1c0.4,0.4,0.7,1,0.9,1.6
			c0.2,0.6,0.3,1.3,0.3,2.1c0,0.2-0.1,0.4-0.2,0.5s-0.3,0.2-0.6,0.2h-7.1v-1.2h6.6l-0.4,0.3c0-0.7-0.1-1.3-0.3-1.8
			c-0.2-0.5-0.5-0.9-0.9-1.2c-0.4-0.3-0.9-0.4-1.5-0.4c-0.7,0-1.2,0.2-1.7,0.5c-0.5,0.3-0.8,0.7-1.1,1.3c-0.2,0.6-0.4,1.2-0.4,1.9
			v0.1c0,1.2,0.3,2.2,0.9,2.8c0.6,0.6,1.5,1,2.6,1c0.4,0,0.9-0.1,1.4-0.2c0.5-0.1,0.9-0.3,1.3-0.6c0.2-0.1,0.4-0.2,0.6-0.2
			c0.2,0,0.3,0.1,0.4,0.2s0.2,0.2,0.2,0.4s0,0.3-0.1,0.5c-0.1,0.2-0.2,0.3-0.4,0.4c-0.5,0.3-1,0.6-1.6,0.7
			C263.2,98.1,262.6,98.2,262,98.2z"/>
	</g>
	<g>
		<defs>
			<circle id="SVGID_1_" cx="145.3" cy="90.8" r="21.7"/>
		</defs>
		<clipPath id="SVGID_00000116950420296122202270000013823709899859653511_">
			<use xlink:href="#SVGID_1_"  style="overflow:visible;"/>
		</clipPath>
		<g style="clip-path:url(#SVGID_00000116950420296122202270000013823709899859653511_);">
			
				<image style="overflow:visible;" width="360" height="540" xlink:href="../Downloads/cyberpunk-girl-beatiful-fullarmored-from-3030_148391-9661(1).jpg"  transform="matrix(0.1282 0 0 0.1282 122.2553 69.0282)">
			</image>
		</g>
	</g>
</g>
<g id="Message">
	<path class="st3" d="M250.1,178.2v9c0,9.9,8,17.9,17.9,17.9h236.3c1.7,0,3-1.4,3-3v-23.9c0-9.9-8-17.9-17.9-17.9H268
		C258.1,160.3,250.1,168.3,250.1,178.2z"/>
	<g>
		<defs>
			<path id="SVGID_00000084512198823967519170000014686750514266946477_" d="M500.7,222.1H270.6c-11.1,0-20,9-20,20v186.6
				c0,11.1,9,20,20,20h215c11,0,20-8.9,20-19.9l1.2-200.6C506.9,224.9,504.1,222.1,500.7,222.1z"/>
		</defs>
		<use xlink:href="#SVGID_00000084512198823967519170000014686750514266946477_"  style="overflow:visible;fill:#129AF7;"/>
		<clipPath id="SVGID_00000055682144921257546530000011392200220788280223_">
			<use xlink:href="#SVGID_00000084512198823967519170000014686750514266946477_"  style="overflow:visible;"/>
		</clipPath>
		
			<linearGradient id="SVGID_00000179643999694345156250000003242166820832390566_" gradientUnits="userSpaceOnUse" x1="384.071" y1="278.8875" x2="386.9164" y2="414.754">
			<stop  offset="0" style="stop-color:#ED1386"/>
			<stop  offset="1" style="stop-color:#FC7D20"/>
		</linearGradient>
		
			<rect x="244.7" y="281.8" style="clip-path:url(#SVGID_00000055682144921257546530000011392200220788280223_);fill:url(#SVGID_00000179643999694345156250000003242166820832390566_);" width="281.6" height="130"/>
		
			<rect x="227.1" y="408.9" style="clip-path:url(#SVGID_00000055682144921257546530000011392200220788280223_);fill:#F3F3F5;" width="322.7" height="71.3"/>
	</g>
	<g>
		<path d="M273.3,433c-1.2,0-2.2-0.2-3-0.7c-0.8-0.5-1.5-1.2-2-2.1c-0.5-0.9-0.7-2-0.7-3.3c0-0.9,0.1-1.8,0.4-2.5
			c0.3-0.8,0.6-1.4,1.1-1.9c0.5-0.5,1.1-0.9,1.8-1.2s1.5-0.4,2.4-0.4c0.7,0,1.3,0.1,2,0.3c0.6,0.2,1.2,0.5,1.6,0.8
			c0.2,0.1,0.3,0.3,0.4,0.4c0.1,0.2,0.1,0.3,0,0.4c0,0.1-0.1,0.3-0.2,0.4c-0.1,0.1-0.2,0.1-0.4,0.2c-0.2,0-0.3-0.1-0.5-0.2
			c-0.4-0.3-0.8-0.5-1.3-0.7c-0.5-0.1-1-0.2-1.5-0.2c-0.9,0-1.6,0.2-2.2,0.5c-0.6,0.4-1.1,0.9-1.4,1.6c-0.3,0.7-0.5,1.5-0.5,2.5
			c0,1,0.2,1.8,0.5,2.5c0.3,0.7,0.8,1.2,1.4,1.6c0.6,0.4,1.3,0.6,2.2,0.6c0.5,0,1-0.1,1.5-0.2c0.5-0.1,0.9-0.4,1.3-0.7
			c0.2-0.1,0.3-0.2,0.5-0.2c0.2,0,0.3,0.1,0.4,0.1c0.1,0.1,0.2,0.2,0.2,0.3c0,0.1,0,0.3,0,0.4c0,0.1-0.1,0.3-0.3,0.4
			c-0.5,0.4-1,0.7-1.6,0.9S274,433,273.3,433z"/>
		<path d="M280,432.9c-0.2,0-0.4-0.1-0.6-0.2c-0.1-0.1-0.2-0.3-0.2-0.6v-10.6c0-0.3,0.1-0.5,0.2-0.6c0.1-0.1,0.3-0.2,0.6-0.2
			c0.2,0,0.4,0.1,0.6,0.2s0.2,0.3,0.2,0.6v4.8h-0.2c0.2-0.6,0.6-1.1,1.2-1.5s1.1-0.5,1.8-0.5c0.7,0,1.2,0.1,1.6,0.4
			c0.4,0.2,0.8,0.6,1,1.1c0.2,0.5,0.3,1.1,0.3,1.8v4.4c0,0.3-0.1,0.5-0.2,0.6c-0.1,0.1-0.3,0.2-0.6,0.2c-0.2,0-0.4-0.1-0.6-0.2
			c-0.1-0.1-0.2-0.3-0.2-0.6v-4.3c0-0.7-0.1-1.3-0.4-1.6c-0.3-0.3-0.7-0.5-1.4-0.5c-0.7,0-1.3,0.2-1.7,0.7c-0.4,0.4-0.7,1-0.7,1.8v4
			C280.8,432.7,280.6,432.9,280,432.9z"/>
		<path d="M289.7,422.7c-0.3,0-0.5-0.1-0.7-0.2s-0.3-0.4-0.3-0.7c0-0.3,0.1-0.5,0.3-0.7c0.2-0.2,0.4-0.2,0.7-0.2
			c0.3,0,0.6,0.1,0.7,0.2c0.2,0.2,0.2,0.4,0.2,0.7c0,0.3-0.1,0.5-0.2,0.7S290,422.7,289.7,422.7z M289.7,432.9
			c-0.2,0-0.4-0.1-0.6-0.2c-0.1-0.1-0.2-0.3-0.2-0.6v-6.8c0-0.3,0.1-0.5,0.2-0.6c0.1-0.1,0.3-0.2,0.6-0.2c0.2,0,0.4,0.1,0.6,0.2
			c0.1,0.1,0.2,0.3,0.2,0.6v6.8c0,0.3-0.1,0.5-0.2,0.6C290.2,432.8,290,432.9,289.7,432.9z"/>
		<path d="M296.4,433c-0.7,0-1.2-0.1-1.7-0.4c-0.4-0.2-0.8-0.6-1-1c-0.2-0.5-0.3-1-0.3-1.7v-4.2h-1.1c-0.2,0-0.4-0.1-0.5-0.2
			c-0.1-0.1-0.2-0.3-0.2-0.4c0-0.2,0.1-0.3,0.2-0.4s0.3-0.2,0.5-0.2h1.1v-1.8c0-0.3,0.1-0.5,0.2-0.6s0.3-0.2,0.6-0.2
			s0.4,0.1,0.6,0.2c0.1,0.1,0.2,0.3,0.2,0.6v1.8h2c0.2,0,0.4,0.1,0.5,0.2c0.1,0.1,0.2,0.2,0.2,0.4c0,0.2-0.1,0.3-0.2,0.4
			c-0.1,0.1-0.3,0.2-0.5,0.2h-2v4c0,0.6,0.1,1.1,0.4,1.4c0.3,0.3,0.7,0.5,1.3,0.5c0.2,0,0.4,0,0.5-0.1c0.1,0,0.3-0.1,0.4-0.1
			c0.1,0,0.2,0,0.3,0.1c0.1,0.1,0.1,0.2,0.1,0.4c0,0.2,0,0.3-0.1,0.4s-0.1,0.2-0.3,0.3c-0.1,0-0.3,0.1-0.5,0.1
			C296.8,432.9,296.6,433,296.4,433z"/>
		<path d="M307.3,432.9c-0.3,0-0.5-0.1-0.6-0.2c-0.1-0.1-0.2-0.3-0.2-0.6v-9.9h-3.7c-0.2,0-0.4-0.1-0.5-0.2
			c-0.1-0.1-0.2-0.3-0.2-0.5c0-0.2,0.1-0.4,0.2-0.5c0.1-0.1,0.3-0.2,0.5-0.2h9c0.2,0,0.4,0.1,0.5,0.2c0.1,0.1,0.2,0.3,0.2,0.5
			c0,0.2-0.1,0.4-0.2,0.5c-0.1,0.1-0.3,0.2-0.5,0.2h-3.7v9.9c0,0.3-0.1,0.5-0.2,0.6C307.8,432.9,307.6,432.9,307.3,432.9z"/>
		<path d="M315,433c-0.6,0-1.1-0.1-1.5-0.3c-0.5-0.2-0.8-0.5-1.1-0.9s-0.4-0.8-0.4-1.3c0-0.6,0.2-1.1,0.5-1.4s0.8-0.6,1.5-0.8
			c0.7-0.2,1.7-0.2,2.9-0.2h0.8v1H317c-0.9,0-1.6,0-2.1,0.1c-0.5,0.1-0.9,0.2-1.1,0.4s-0.3,0.5-0.3,0.8c0,0.4,0.2,0.8,0.5,1.1
			c0.3,0.3,0.7,0.4,1.3,0.4c0.4,0,0.8-0.1,1.1-0.3s0.6-0.5,0.8-0.8c0.2-0.4,0.3-0.8,0.3-1.2v-1.9c0-0.7-0.1-1.1-0.4-1.4
			c-0.3-0.3-0.7-0.4-1.4-0.4c-0.4,0-0.8,0.1-1.2,0.2c-0.4,0.1-0.8,0.3-1.2,0.5c-0.2,0.1-0.3,0.1-0.4,0.1c-0.1,0-0.2-0.1-0.3-0.2
			c-0.1-0.1-0.1-0.2-0.1-0.4c0-0.1,0-0.3,0.1-0.4c0.1-0.1,0.2-0.2,0.3-0.3c0.5-0.2,1-0.4,1.5-0.5c0.5-0.1,1-0.2,1.4-0.2
			c0.7,0,1.3,0.1,1.8,0.3c0.5,0.2,0.8,0.6,1.1,1.1c0.2,0.5,0.4,1.1,0.4,1.8v4.5c0,0.3-0.1,0.5-0.2,0.6c-0.1,0.1-0.3,0.2-0.5,0.2
			c-0.2,0-0.4-0.1-0.5-0.2c-0.1-0.1-0.2-0.3-0.2-0.6v-1.2h0.2c-0.1,0.4-0.3,0.8-0.5,1.1s-0.6,0.5-0.9,0.7
			C315.9,432.9,315.5,433,315,433z"/>
		<path d="M324,433c-0.8,0-1.5-0.3-1.9-0.8c-0.4-0.5-0.7-1.2-0.7-2.2v-8.5c0-0.3,0.1-0.5,0.2-0.6c0.1-0.1,0.3-0.2,0.6-0.2
			c0.2,0,0.4,0.1,0.6,0.2c0.1,0.1,0.2,0.3,0.2,0.6v8.4c0,0.6,0.1,1,0.4,1.3s0.6,0.4,1,0.4c0.1,0,0.2,0,0.3,0s0.2,0,0.2,0
			c0.1,0,0.2,0,0.3,0.1c0.1,0.1,0.1,0.2,0.1,0.5c0,0.2,0,0.4-0.1,0.5c-0.1,0.1-0.3,0.2-0.5,0.2c-0.1,0-0.2,0-0.3,0
			S324.1,433,324,433z"/>
	</g>
	<g>
		<path class="st6" d="M276.3,180.5c0.2,0.6,0.3,1.3,0.3,2.1c0,2.6-0.9,4.2-2.6,4.7l-0.5-1.1c1.1-0.4,1.6-1.6,1.6-3.5
			c0-2.3-0.9-3.5-2.6-3.5s-2.6,1.2-2.6,3.5c0,2,0.5,3.1,1.6,3.5l-0.5,1.1c-1.7-0.5-2.6-2.1-2.6-4.7c0-3.1,1.3-4.7,4-4.7
			c1.3,0,2.3,0.4,3,1.1c0.7-0.7,1.7-1.1,3-1.1c2.7,0,4,1.6,4,4.7s-1.3,4.7-4,4.7v-1.2c1.7,0,2.6-1.2,2.6-3.5s-0.9-3.5-2.6-3.5
			C277.5,179.2,276.7,179.6,276.3,180.5z"/>
		<path class="st6" d="M280.8,189.7l0.9-1.1l2.7,1.9V178h1.5v14.2h-1.4L280.8,189.7z"/>
		<path class="st6" d="M281.7,190c0,1.5-0.9,2.2-2.6,2.2s-2.6-0.7-2.6-2.2c0-1.5,0.9-2.2,2.6-2.2S281.7,188.5,281.7,190z M277.5,190
			c0,0.8,0.5,1.3,1.6,1.3c1.1,0,1.6-0.4,1.6-1.3s-0.5-1.3-1.6-1.3C278,188.7,277.5,189.2,277.5,190z"/>
		<path class="st6" d="M292.9,187.3v5h-1.5v-4.9c-2.5-0.1-3.7-0.8-3.7-2.2c0-1.3,0.7-2,2.2-2c2,0,3,0.8,3,2.3v0.5
			c0.9-0.2,1.4-0.8,1.4-1.6c0-0.9-0.8-1.6-2.4-2c-2.1-0.6-3.2-1.4-3.2-2.5c0-1.3,1-2,3-2c1.3,0,2.3,0.5,3,1.6l-1.2,0.8
			c-0.4-0.8-1-1.1-1.7-1.1c-1,0-1.5,0.3-1.5,0.8c0,0.5,0.7,1,2,1.3c2.4,0.6,3.5,1.7,3.5,3.1C295.7,186.1,294.8,187,292.9,187.3z
			 M291.4,186.1v-0.6c0-0.8-0.5-1.1-1.5-1.1c-0.5,0-0.8,0.3-0.8,0.8C289.1,185.8,289.9,186.1,291.4,186.1z"/>
		<path class="st6" d="M292.8,172c-1.3,0-2,0.7-2,2c0,1.3,0.7,2,2,2v1.2c-2.1,0-3.1-1-3.1-3.1c0-2.1,1-3.1,3.1-3.1
			c1.5,0,2.5,0.6,2.9,1.7l-1.1,0.5C294.3,172.3,293.7,172,292.8,172z"/>
		<path class="st6" d="M301.3,183.3c0.5-0.1,1-0.2,1.5-0.2c1.2,0,2.2,0.5,2.9,1.5c-0.5,1.9-1.8,2.8-3.9,2.8c-2.8,0-4.2-1.6-4.2-4.7
			s1.4-4.7,4.2-4.7c2,0,3.3,0.8,3.9,2.3l-1.4,0.4c-0.4-1-1.2-1.6-2.5-1.6c-1.8,0-2.8,1.2-2.8,3.5c0,0.6,0.1,1.1,0.2,1.6
			C299.7,183.8,300.4,183.5,301.3,183.3z M302.5,184.3c-0.3,0-0.6,0-0.9,0.1c-0.8,0.2-1.4,0.6-1.7,1.1c0.5,0.4,1.1,0.6,1.9,0.6
			c1.1,0,1.9-0.4,2.3-1.2C303.6,184.5,303.1,184.3,302.5,184.3z"/>
		<path class="st6" d="M307.4,182.7c0-3.1,1.3-4.7,4-4.7c1.3,0,2.3,0.4,3,1.1c0.7-0.7,1.7-1.1,3-1.1c2.7,0,4,1.6,4,4.7
			s-1.3,4.7-4,4.7v-1.2c1.7,0,2.6-1.2,2.6-3.5s-0.9-3.5-2.6-3.5c-1.1,0-1.8,0.5-2.2,1.4c0.2,0.6,0.3,1.3,0.3,2.1
			c0,3.1-1.3,4.7-4,4.7C308.8,187.3,307.4,185.8,307.4,182.7z M314,182.7c0-2.3-0.9-3.5-2.6-3.5c-1.7,0-2.6,1.2-2.6,3.5
			s0.9,3.5,2.6,3.5C313.2,186.1,314,185,314,182.7z"/>
		<path class="st6" d="M321.2,180.5l-0.8-1.4c0.7-0.7,1.7-1.1,3-1.1c2.7,0,4,1.6,4,4.7s-1.3,4.7-4,4.7v-1.2c1.7,0,2.6-1.2,2.6-3.5
			s-0.9-3.5-2.6-3.5C322.4,179.2,321.6,179.6,321.2,180.5z"/>
		<path class="st6" d="M324.6,172c-1.3,0-2,0.7-2,2c0,1.3,0.7,2,2,2v1.2c-2.1,0-3.1-1-3.1-3.1c0-2.1,1-3.1,3.1-3.1
			c1.5,0,2.5,0.6,2.9,1.7l-1.1,0.5C326.1,172.3,325.5,172,324.6,172z"/>
		<path class="st6" d="M335.7,184.2c0.1-0.4,0.2-1,0.2-1.6c0-2.3-0.9-3.5-2.7-3.5c-1.3,0-2.1,0.5-2.5,1.6l-1.4-0.4
			c0.6-1.5,1.9-2.3,3.9-2.3c2.8,0,4.2,1.6,4.2,4.7s-1.4,4.7-4.2,4.7c-2.1,0-3.4-0.9-3.9-2.8c0.7-1,1.6-1.5,2.9-1.5
			c0.4,0,0.9,0.1,1.5,0.2C334.5,183.5,335.2,183.8,335.7,184.2z M330.8,184.9c0.4,0.8,1.2,1.2,2.3,1.2c0.8,0,1.4-0.2,1.9-0.6
			c-0.3-0.5-0.9-0.9-1.7-1.1c-0.3-0.1-0.6-0.1-0.9-0.1C331.8,184.3,331.2,184.5,330.8,184.9z"/>
		<path class="st6" d="M343.4,178c2,0,3.3,0.8,3.9,2.3l-1.4,0.4c-0.4-1-1.2-1.6-2.5-1.6c-1.8,0-2.7,1.2-2.7,3.5s0.9,3.5,2.7,3.5
			c1.3,0,2.1-0.5,2.5-1.6l1.4,0.4c-0.6,1.5-1.9,2.3-3.9,2.3c-2.8,0-4.2-1.6-4.2-4.7S340.6,178,343.4,178z"/>
		<path class="st6" d="M344.3,172c-1.3,0-2,0.7-2,2c0,1.3,0.7,2,2,2v1.2c-2.1,0-3.1-1-3.1-3.1c0-2.1,1-3.1,3.1-3.1
			c1.5,0,2.5,0.6,2.9,1.7l-1.1,0.5C345.8,172.3,345.2,172,344.3,172z"/>
		<path class="st6" d="M354.1,178.9l0.4-0.9c1.7,0.5,2.6,2.1,2.6,4.7c0,3.1-1.3,4.7-4,4.7c-2.7,0-4-1.6-4-4.7c0-2.6,0.9-4.2,2.6-4.7
			l0.4,0.9v0.4c0,0.6,0.4,0.9,1.1,0.9c0.7,0,1.1-0.3,1.1-0.9V178.9z M355.2,180.2c-0.3,0.8-1,1.2-2.1,1.2c-1.1,0-1.8-0.4-2.1-1.2
			c-0.3,0.6-0.4,1.4-0.4,2.5c0,2.3,0.9,3.5,2.6,3.5c1.7,0,2.6-1.2,2.6-3.5C355.6,181.6,355.5,180.8,355.2,180.2z"/>
		<path class="st6" d="M354.7,190.6v-2.7h1.5v2l2.7,1V178h1.5v14.2H359L354.7,190.6z"/>
		<path class="st6" d="M360.1,180.5l-0.8-1.4c0.7-0.7,1.7-1.1,3-1.1c2.7,0,4,1.6,4,4.7s-1.3,4.7-4,4.7v-1.2c1.7,0,2.6-1.2,2.6-3.5
			s-0.9-3.5-2.6-3.5C361.3,179.2,360.5,179.6,360.1,180.5z"/>
		<path class="st6" d="M369.8,178.3c1.1,0,1.6,0.5,1.6,1.6c0,1.1-0.5,1.6-1.6,1.6s-1.6-0.5-1.6-1.6
			C368.2,178.9,368.7,178.3,369.8,178.3z M369.8,183.7c1.1,0,1.6,0.5,1.6,1.6s-0.5,1.6-1.6,1.6s-1.6-0.5-1.6-1.6
			S368.7,183.7,369.8,183.7z M370.3,180c0-0.4-0.2-0.5-0.5-0.5s-0.5,0.2-0.5,0.5s0.2,0.5,0.5,0.5S370.3,180.3,370.3,180z
			 M370.3,185.3c0-0.4-0.2-0.5-0.5-0.5s-0.5,0.2-0.5,0.5c0,0.4,0.2,0.5,0.5,0.5S370.3,185.7,370.3,185.3z"/>
		<path class="st6" d="M381,180.5c0.2,0.6,0.3,1.3,0.3,2.1c0,2.6-0.9,4.2-2.6,4.7l-0.5-1.1c1.1-0.4,1.6-1.6,1.6-3.5
			c0-2.3-0.9-3.5-2.6-3.5c-1.7,0-2.6,1.2-2.6,3.5c0,2,0.5,3.1,1.6,3.5l-0.5,1.1c-1.7-0.5-2.6-2.1-2.6-4.7c0-3.1,1.3-4.7,4-4.7
			c1.3,0,2.3,0.4,3,1.1c0.7-0.7,1.7-1.1,3-1.1c2.7,0,4,1.6,4,4.7s-1.3,4.7-4,4.7v-1.2c1.7,0,2.6-1.2,2.6-3.5s-0.9-3.5-2.6-3.5
			C382.2,179.2,381.5,179.6,381,180.5z"/>
		<path class="st6" d="M383.3,170.8c2.1,0,3.1,1,3.1,3.1c0,2.1-1,3.1-3.1,3.1c-2.1,0-3.1-1-3.1-3.1
			C380.1,171.9,381.2,170.8,383.3,170.8z M385.2,173.9c0-1.3-0.7-2-2-2c-1.3,0-2,0.7-2,2c0,1.3,0.7,2,2,2
			C384.6,175.9,385.2,175.3,385.2,173.9z"/>
		<path class="st6" d="M384,187.9v3.2h1.3v1.2h-2.7v-4.4H384z"/>
		<path class="st6" d="M397.4,183.3c0.5-0.1,1-0.2,1.5-0.2c1.2,0,2.2,0.5,2.9,1.5c-0.5,1.9-1.8,2.8-3.9,2.8c-2.8,0-4.2-1.6-4.2-4.7
			s1.4-4.7,4.2-4.7c2,0,3.3,0.8,3.9,2.3l-1.4,0.4c-0.4-1-1.2-1.6-2.5-1.6c-1.8,0-2.7,1.2-2.7,3.5c0,0.6,0.1,1.1,0.2,1.6
			C395.8,183.8,396.5,183.5,397.4,183.3z M398.6,184.3c-0.3,0-0.6,0-0.9,0.1c-0.8,0.2-1.4,0.6-1.7,1.1c0.5,0.4,1.1,0.6,1.9,0.6
			c1.1,0,1.9-0.4,2.3-1.2C399.8,184.5,399.2,184.3,398.6,184.3z"/>
		<path class="st6" d="M406.3,192.2c-1.8,0-2.8-0.8-2.8-2.4v-16.2c0-1.6,0.9-2.4,2.8-2.4h5.8c1.8,0,2.7,0.8,2.7,2.4v2h-1.5v-2
			c0-0.8-0.4-1.2-1.3-1.2h-5.8c-0.9,0-1.3,0.4-1.3,1.2v16.2c0,0.8,0.4,1.2,1.3,1.2h5.8c0.9,0,1.3-0.4,1.3-1.2v-4.3h1.5v4.3
			c0,1.6-0.9,2.4-2.7,2.4H406.3z"/>
		<path class="st6" d="M406.8,182.7c0-2.6,0.9-4.2,2.6-4.7l0.5,1.1c-1.1,0.4-1.6,1.6-1.6,3.5c0,2.3,0.9,3.5,2.6,3.5
			c1.7,0,2.6-1.2,2.6-3.5c0-2-0.5-3.1-1.6-3.5l0.5-1.1c1.7,0.5,2.6,2.1,2.6,4.7c0,3.1-1.3,4.7-4,4.7
			C408.1,187.3,406.8,185.8,406.8,182.7z"/>
		<path class="st6" d="M414.6,180.5l-0.8-1.4c0.7-0.7,1.7-1.1,3-1.1c2.7,0,4,1.6,4,4.7s-1.3,4.7-4,4.7v-1.2c1.7,0,2.6-1.2,2.6-3.5
			s-0.9-3.5-2.6-3.5C415.8,179.2,415,179.6,414.6,180.5z"/>
		<path class="st6" d="M425.4,192.2c-1.8,0-2.8-0.8-2.8-2.4v-16.2c0-1.6,0.9-2.4,2.8-2.4h5.8c1.8,0,2.7,0.8,2.7,2.4v2h-1.5v-2
			c0-0.8-0.4-1.2-1.3-1.2h-5.8c-0.9,0-1.3,0.4-1.3,1.2v16.2c0,0.8,0.4,1.2,1.3,1.2h5.8c0.9,0,1.3-0.4,1.3-1.2v-4.3h1.5v4.3
			c0,1.6-0.9,2.4-2.7,2.4H425.4z"/>
		<path class="st6" d="M425.9,182.7c0-2.6,0.9-4.2,2.6-4.7l0.5,1.1c-1.1,0.4-1.6,1.6-1.6,3.5c0,2.3,0.9,3.5,2.6,3.5
			c1.7,0,2.6-1.2,2.6-3.5c0-2-0.5-3.1-1.6-3.5l0.5-1.1c1.7,0.5,2.6,2.1,2.6,4.7c0,3.1-1.3,4.7-4,4.7
			C427.3,187.3,425.9,185.8,425.9,182.7z"/>
		<path class="st6" d="M442.2,184.2c0.1-0.4,0.2-1,0.2-1.6c0-2.3-0.9-3.5-2.7-3.5c-1.3,0-2.1,0.5-2.5,1.6l-1.4-0.4
			c0.6-1.5,1.9-2.3,3.9-2.3c2.8,0,4.2,1.6,4.2,4.7s-1.4,4.7-4.2,4.7c-2.1,0-3.4-0.9-3.9-2.8c0.7-1,1.6-1.5,2.9-1.5
			c0.4,0,0.9,0.1,1.5,0.2C441,183.5,441.7,183.8,442.2,184.2z M437.4,184.9c0.4,0.8,1.2,1.2,2.3,1.2c0.8,0,1.4-0.2,1.9-0.6
			c-0.3-0.5-0.9-0.9-1.7-1.1c-0.3-0.1-0.6-0.1-0.9-0.1C438.3,184.3,437.8,184.5,437.4,184.9z"/>
		<path class="st6" d="M441.5,190.6v-2.7h1.5v2l2.7,1V178h1.5v14.2h-1.4L441.5,190.6z"/>
		<path class="st6" d="M453.2,178c2,0,3.3,0.8,3.9,2.3l-1.4,0.4c-0.4-1-1.2-1.6-2.5-1.6c-1.8,0-2.7,1.2-2.7,3.5s0.9,3.5,2.7,3.5
			c1.3,0,2.1-0.5,2.5-1.6l1.4,0.4c-0.6,1.5-1.9,2.3-3.9,2.3c-2.8,0-4.2-1.6-4.2-4.7S450.4,178,453.2,178z"/>
		<path class="st6" d="M454.1,172c-1.3,0-2,0.7-2,2c0,1.3,0.7,2,2,2v1.2c-2.1,0-3.1-1-3.1-3.1c0-2.1,1-3.1,3.1-3.1
			c1.5,0,2.5,0.6,2.9,1.7l-1.1,0.5C455.7,172.3,455.1,172,454.1,172z"/>
		<path class="st6" d="M458.8,182.7c0-3.1,1.3-4.7,4-4.7c1.3,0,2.3,0.4,3,1.1c0.7-0.7,1.7-1.1,3-1.1c2.7,0,4,1.6,4,4.7
			s-1.3,4.7-4,4.7v-1.2c1.7,0,2.6-1.2,2.6-3.5s-0.9-3.5-2.6-3.5c-1.1,0-1.8,0.5-2.2,1.4c0.2,0.6,0.3,1.3,0.3,2.1
			c0,3.1-1.3,4.7-4,4.7C460.2,187.3,458.8,185.8,458.8,182.7z M465.5,182.7c0-2.3-0.9-3.5-2.6-3.5c-1.7,0-2.6,1.2-2.6,3.5
			s0.9,3.5,2.6,3.5C464.6,186.1,465.5,185,465.5,182.7z"/>
		<path class="st6" d="M484.7,186.1c1.7,0,2.6-1.2,2.6-3.5s-0.9-3.5-2.6-3.5V178c2.7,0,4,1.6,4,4.7s-1.3,4.7-4,4.7
			c-1.3,0-2.3-0.4-3-1.1c-0.7,0.7-1.7,1.1-3,1.1c-2.7,0-4-1.6-4-4.7c0-2.6,0.9-4.2,2.6-4.7l0.5,1.1c-1.1,0.4-1.6,1.6-1.6,3.5
			c0,2.3,0.9,3.5,2.6,3.5c1.7,0,2.6-1.2,2.6-3.5c0-2-0.5-3.1-1.6-3.5l0.5-1.1c1.7,0.5,2.6,2.1,2.6,4.7c0,0.8-0.1,1.5-0.3,2.1
			C482.9,185.7,483.7,186.1,484.7,186.1z"/>
		<path class="st6" d="M485.9,172c-1.3,0-2,0.7-2,2c0,1.3,0.7,2,2,2v1.2c-2.1,0-3.1-1-3.1-3.1c0-2.1,1-3.1,3.1-3.1
			c1.5,0,2.5,0.6,2.9,1.7l-1.1,0.5C487.4,172.3,486.8,172,485.9,172z"/>
		<path class="st6" d="M492,178v9.3h-1.5V178H492z M494.7,178v9.3h-1.5V178H494.7z"/>
	</g>
	<g>
		
			<image style="overflow:visible;opacity:0.2;" width="216" height="47" xlink:href="3206B480B5FF35CA.png"  transform="matrix(1 0 0 1 272.0071 326.9732)">
		</image>
		<g>
			<g>
				<path class="st6" d="M283.3,345.9c0-3.1,1.4-4.7,4.1-4.7c1.3,0,2.3,0.4,3,1.1c0.7-0.7,1.7-1.1,3-1.1c2.7,0,4.1,1.6,4.1,4.7
					c0,3.1-1.4,4.7-4.1,4.7v-1.2c1.7,0,2.6-1.2,2.6-3.5c0-2.3-0.9-3.5-2.6-3.5c-1.1,0-1.8,0.5-2.2,1.4c0.2,0.6,0.3,1.3,0.3,2.1
					c0,3.1-1.4,4.7-4.1,4.7C284.6,350.6,283.3,349,283.3,345.9z M290,345.9c0-2.3-0.9-3.5-2.6-3.5c-1.7,0-2.6,1.2-2.6,3.5
					c0,2.3,0.9,3.5,2.6,3.5C289.1,349.4,290,348.2,290,345.9z"/>
				<path class="st6" d="M303.4,341.2c2.7,0,4.1,1.6,4.1,4.7c0,3.1-1.4,4.7-4.1,4.7c-2.7,0-4.1-1.6-4.1-4.7
					C299.3,342.8,300.6,341.2,303.4,341.2z M301.3,343.4c-0.4,0.6-0.5,1.4-0.5,2.5c0,1.1,0.2,1.9,0.5,2.4c0.8-0.5,1.2-1.3,1.2-2.4
					C302.5,344.7,302.1,343.9,301.3,343.4z M302.2,349.2c0.3,0.1,0.7,0.2,1.1,0.2c1.7,0,2.6-1.2,2.6-3.5c0-2.3-0.9-3.5-2.6-3.5
					c-0.4,0-0.8,0.1-1.1,0.2c1,0.7,1.5,1.8,1.5,3.3C303.7,347.4,303.2,348.5,302.2,349.2z"/>
				<path class="st6" d="M304.5,335.1c-1.3,0-2,0.7-2,2c0,1.3,0.7,2,2,2v1.2c-2.1,0-3.2-1.1-3.2-3.2s1.1-3.2,3.2-3.2
					c1.5,0,2.5,0.6,2.9,1.7l-1.1,0.5C306,335.5,305.4,335.1,304.5,335.1z"/>
				<path class="st6" d="M313,346.5c0.5-0.1,1-0.2,1.5-0.2c1.2,0,2.2,0.5,2.9,1.5c-0.5,1.9-1.8,2.8-3.9,2.8c-2.8,0-4.3-1.6-4.3-4.7
					c0-3.1,1.4-4.7,4.3-4.7c2,0,3.3,0.8,3.9,2.3L316,344c-0.4-1-1.2-1.6-2.5-1.6c-1.8,0-2.8,1.2-2.8,3.5c0,0.6,0.1,1.1,0.2,1.6
					C311.4,347.1,312.1,346.7,313,346.5z M314.2,347.5c-0.3,0-0.6,0-0.9,0.1c-0.8,0.2-1.4,0.6-1.7,1.1c0.5,0.4,1.1,0.6,1.9,0.6
					c1.1,0,1.9-0.4,2.3-1.2C315.4,347.7,314.9,347.5,314.2,347.5z"/>
				<path class="st6" d="M329.3,349.4c1.7,0,2.6-1.2,2.6-3.5c0-2.3-0.9-3.5-2.6-3.5v-1.2c2.7,0,4.1,1.6,4.1,4.7
					c0,3.1-1.4,4.7-4.1,4.7c-1.3,0-2.3-0.4-3-1.1c-0.7,0.7-1.7,1.1-3,1.1c-2.7,0-4.1-1.6-4.1-4.7c0-2.6,0.9-4.2,2.6-4.7l0.5,1.2
					c-1.1,0.4-1.6,1.6-1.6,3.5c0,2.3,0.9,3.5,2.6,3.5s2.6-1.2,2.6-3.5c0-2-0.5-3.2-1.6-3.5l0.5-1.2c1.8,0.5,2.6,2.1,2.6,4.7
					c0,0.8-0.1,1.5-0.3,2.1C327.5,349,328.2,349.4,329.3,349.4z"/>
				<path class="st6" d="M333.1,343.8l-0.8-1.4c0.7-0.7,1.7-1.1,3-1.1c2.7,0,4.1,1.6,4.1,4.7c0,3.1-1.4,4.7-4.1,4.7v-1.2
					c1.7,0,2.6-1.2,2.6-3.5c0-2.3-0.9-3.5-2.6-3.5C334.2,342.4,333.5,342.8,333.1,343.8z"/>
				<path class="st6" d="M349.1,343.8c0.2,0.6,0.3,1.3,0.3,2.1c0,2.6-0.9,4.2-2.6,4.7l-0.5-1.2c1.1-0.4,1.6-1.6,1.6-3.5
					c0-2.3-0.9-3.5-2.6-3.5c-1.7,0-2.6,1.2-2.6,3.5c0,2,0.5,3.2,1.6,3.5l-0.5,1.2c-1.8-0.5-2.6-2.1-2.6-4.7c0-3.1,1.4-4.7,4.1-4.7
					c1.3,0,2.3,0.4,3,1.1c0.7-0.7,1.7-1.1,3-1.1c2.7,0,4.1,1.6,4.1,4.7c0,3.1-1.4,4.7-4.1,4.7v-1.2c1.7,0,2.6-1.2,2.6-3.5
					c0-2.3-0.9-3.5-2.6-3.5C350.2,342.4,349.5,342.8,349.1,343.8z"/>
				<path class="st6" d="M352.4,335.1c-1.3,0-2,0.7-2,2c0,1.3,0.7,2,2,2v1.2c-2.1,0-3.2-1.1-3.2-3.2s1.1-3.2,3.2-3.2
					c1.5,0,2.5,0.6,2.9,1.7l-1.1,0.5C354,335.5,353.4,335.1,352.4,335.1z"/>
				<path class="st6" d="M361,346.5c0.5-0.1,1-0.2,1.5-0.2c1.2,0,2.2,0.5,2.9,1.5c-0.5,1.9-1.8,2.8-3.9,2.8c-2.8,0-4.3-1.6-4.3-4.7
					c0-3.1,1.4-4.7,4.3-4.7c2,0,3.3,0.8,3.9,2.3l-1.4,0.5c-0.4-1-1.2-1.6-2.5-1.6c-1.8,0-2.8,1.2-2.8,3.5c0,0.6,0.1,1.1,0.2,1.6
					C359.4,347.1,360.1,346.7,361,346.5z M362.2,347.5c-0.3,0-0.6,0-0.9,0.1c-0.8,0.2-1.4,0.6-1.7,1.1c0.5,0.4,1.1,0.6,1.9,0.6
					c1.1,0,1.9-0.4,2.3-1.2C363.4,347.7,362.8,347.5,362.2,347.5z"/>
				<path class="st6" d="M377.3,349.4c1.7,0,2.6-1.2,2.6-3.5c0-2.3-0.9-3.5-2.6-3.5v-1.2c2.7,0,4.1,1.6,4.1,4.7
					c0,3.1-1.4,4.7-4.1,4.7c-1.3,0-2.3-0.4-3-1.1c-0.7,0.7-1.7,1.1-3,1.1c-2.7,0-4.1-1.6-4.1-4.7c0-2.6,0.9-4.2,2.6-4.7l0.5,1.2
					c-1.1,0.4-1.6,1.6-1.6,3.5c0,2.3,0.9,3.5,2.6,3.5c1.7,0,2.6-1.2,2.6-3.5c0-2-0.5-3.2-1.6-3.5l0.5-1.2c1.8,0.5,2.6,2.1,2.6,4.7
					c0,0.8-0.1,1.5-0.3,2.1C375.4,349,376.2,349.4,377.3,349.4z"/>
				<path class="st6" d="M381.1,343.8l-0.8-1.4c0.7-0.7,1.7-1.1,3-1.1c2.7,0,4.1,1.6,4.1,4.7c0,3.1-1.4,4.7-4.1,4.7v-1.2
					c1.7,0,2.6-1.2,2.6-3.5c0-2.3-0.9-3.5-2.6-3.5C382.2,342.4,381.5,342.8,381.1,343.8z"/>
				<path class="st6" d="M397,343.8c0.2,0.6,0.3,1.3,0.3,2.1c0,2.6-0.9,4.2-2.6,4.7l-0.5-1.2c1.1-0.4,1.6-1.6,1.6-3.5
					c0-2.3-0.9-3.5-2.6-3.5c-1.7,0-2.6,1.2-2.6,3.5c0,2,0.5,3.2,1.6,3.5l-0.5,1.2c-1.8-0.5-2.6-2.1-2.6-4.7c0-3.1,1.4-4.7,4.1-4.7
					c1.3,0,2.3,0.4,3,1.1c0.7-0.7,1.7-1.1,3-1.1c2.7,0,4.1,1.6,4.1,4.7c0,3.1-1.4,4.7-4.1,4.7v-1.2c1.7,0,2.6-1.2,2.6-3.5
					c0-2.3-0.9-3.5-2.6-3.5C398.2,342.4,397.5,342.8,397,343.8z"/>
				<path class="st6" d="M400.4,335.1c-1.3,0-2,0.7-2,2c0,1.3,0.7,2,2,2v1.2c-2.1,0-3.2-1.1-3.2-3.2s1.1-3.2,3.2-3.2
					c1.5,0,2.5,0.6,2.9,1.7l-1.1,0.5C401.9,335.5,401.3,335.1,400.4,335.1z"/>
				<path class="st6" d="M413,343.8c0.2,0.6,0.3,1.3,0.3,2.1c0,2.6-0.9,4.2-2.6,4.7l-0.5-1.2c1.1-0.4,1.6-1.6,1.6-3.5
					c0-2.3-0.9-3.5-2.6-3.5s-2.6,1.2-2.6,3.5c0,2,0.5,3.2,1.6,3.5l-0.5,1.2c-1.8-0.5-2.6-2.1-2.6-4.7c0-3.1,1.4-4.7,4.1-4.7
					c1.3,0,2.3,0.4,3,1.1c0.7-0.7,1.7-1.1,3-1.1c2.7,0,4.1,1.6,4.1,4.7c0,3.1-1.4,4.7-4.1,4.7v-1.2c1.7,0,2.6-1.2,2.6-3.5
					c0-2.3-0.9-3.5-2.6-3.5C414.2,342.4,413.4,342.8,413,343.8z"/>
				<path class="st6" d="M415.3,334c2.1,0,3.2,1.1,3.2,3.2s-1.1,3.2-3.2,3.2s-3.2-1.1-3.2-3.2S413.1,334,415.3,334z M417.2,337.1
					c0-1.3-0.7-2-2-2c-1.3,0-2,0.7-2,2c0,1.3,0.7,2,2,2C416.6,339.1,417.2,338.4,417.2,337.1z"/>
				<path class="st6" d="M416,351.2v3.2h1.3v1.2h-2.8v-4.4H416z"/>
				<path class="st6" d="M427.6,347.5c0.1-0.4,0.2-1,0.2-1.6c0-2.3-0.9-3.5-2.8-3.5c-1.3,0-2.1,0.5-2.5,1.6l-1.4-0.5
					c0.6-1.5,1.9-2.3,3.9-2.3c2.8,0,4.3,1.6,4.3,4.7c0,3.1-1.4,4.7-4.3,4.7c-2.1,0-3.4-0.9-3.9-2.8c0.7-1,1.6-1.5,2.9-1.5
					c0.4,0,0.9,0.1,1.5,0.2C426.4,346.7,427.1,347.1,427.6,347.5z M422.7,348.2c0.4,0.8,1.2,1.2,2.3,1.2c0.8,0,1.4-0.2,1.9-0.6
					c-0.3-0.5-0.9-0.9-1.7-1.1c-0.3-0.1-0.6-0.1-0.9-0.1C423.6,347.5,423.1,347.7,422.7,348.2z"/>
				<path class="st6" d="M426.9,353.9v-2.7h1.5v2l2.7,1v-13h1.5v14.4h-1.4L426.9,353.9z"/>
				<path class="st6" d="M438.5,341.2c2.7,0,4.1,1.6,4.1,4.7c0,3.1-1.4,4.7-4.1,4.7c-2.7,0-4.1-1.6-4.1-4.7
					C434.4,342.8,435.7,341.2,438.5,341.2z M436.4,343.4c-0.3,0.6-0.5,1.4-0.5,2.5c0,1.1,0.2,1.9,0.5,2.4c0.8-0.5,1.2-1.3,1.2-2.4
					C437.6,344.7,437.2,343.9,436.4,343.4z M437.3,349.2c0.3,0.1,0.7,0.2,1.1,0.2c1.7,0,2.6-1.2,2.6-3.5c0-2.3-0.9-3.5-2.6-3.5
					c-0.4,0-0.8,0.1-1.1,0.2c1,0.7,1.5,1.8,1.5,3.3C438.8,347.4,438.3,348.5,437.3,349.2z"/>
				<path class="st6" d="M439.6,335.1c-1.3,0-2,0.7-2,2c0,1.3,0.7,2,2,2v1.2c-2.1,0-3.2-1.1-3.2-3.2s1.1-3.2,3.2-3.2
					c1.5,0,2.5,0.6,2.9,1.7l-1.1,0.5C441.1,335.5,440.5,335.1,439.6,335.1z"/>
				<path class="st6" d="M444.3,345.9c0-3.1,1.4-4.7,4.1-4.7c1.3,0,2.3,0.4,3,1.1c0.7-0.7,1.7-1.1,3-1.1c2.7,0,4.1,1.6,4.1,4.7
					c0,3.1-1.4,4.7-4.1,4.7v-1.2c1.7,0,2.6-1.2,2.6-3.5c0-2.3-0.9-3.5-2.6-3.5c-1.1,0-1.8,0.5-2.2,1.4c0.2,0.6,0.3,1.3,0.3,2.1
					c0,3.1-1.4,4.7-4.1,4.7C445.7,350.6,444.3,349,444.3,345.9z M451,345.9c0-2.3-0.9-3.5-2.6-3.5c-1.7,0-2.6,1.2-2.6,3.5
					c0,2.3,0.9,3.5,2.6,3.5C450.1,349.4,451,348.2,451,345.9z"/>
				<path class="st6" d="M470.4,349.4c1.7,0,2.6-1.2,2.6-3.5c0-2.3-0.9-3.5-2.6-3.5v-1.2c2.7,0,4.1,1.6,4.1,4.7
					c0,3.1-1.4,4.7-4.1,4.7c-1.3,0-2.3-0.4-3-1.1c-0.7,0.7-1.7,1.1-3,1.1c-2.7,0-4.1-1.6-4.1-4.7c0-2.6,0.9-4.2,2.6-4.7l0.5,1.2
					c-1.1,0.4-1.6,1.6-1.6,3.5c0,2.3,0.9,3.5,2.6,3.5c1.7,0,2.6-1.2,2.6-3.5c0-2-0.5-3.2-1.6-3.5l0.5-1.2c1.8,0.5,2.6,2.1,2.6,4.7
					c0,0.8-0.1,1.5-0.3,2.1C468.6,349,469.4,349.4,470.4,349.4z"/>
				<path class="st6" d="M471.6,335.1c-1.3,0-2,0.7-2,2c0,1.3,0.7,2,2,2v1.2c-2.1,0-3.2-1.1-3.2-3.2s1.1-3.2,3.2-3.2
					c1.5,0,2.5,0.6,2.9,1.7l-1.1,0.5C473.1,335.5,472.5,335.1,471.6,335.1z"/>
			</g>
		</g>
	</g>
	<g>
		<g>
			<path class="st6" d="M264.7,258.6c-0.2,0-0.4-0.1-0.6-0.2c-0.1-0.1-0.2-0.3-0.2-0.6v-10.6c0-0.3,0.1-0.5,0.2-0.6
				c0.1-0.1,0.3-0.2,0.6-0.2c0.2,0,0.4,0.1,0.6,0.2s0.2,0.3,0.2,0.6v4.8h-0.2c0.2-0.6,0.6-1.1,1.2-1.5s1.1-0.5,1.8-0.5
				c0.7,0,1.2,0.1,1.6,0.4c0.4,0.2,0.8,0.6,1,1.1c0.2,0.5,0.3,1.1,0.3,1.8v4.4c0,0.3-0.1,0.5-0.2,0.6c-0.1,0.1-0.3,0.2-0.6,0.2
				c-0.2,0-0.4-0.1-0.6-0.2c-0.1-0.1-0.2-0.3-0.2-0.6v-4.3c0-0.7-0.1-1.3-0.4-1.6c-0.3-0.3-0.7-0.5-1.4-0.5c-0.7,0-1.3,0.2-1.7,0.7
				c-0.4,0.4-0.7,1-0.7,1.8v4C265.5,258.3,265.2,258.6,264.7,258.6z"/>
			<path class="st6" d="M277.1,258.6c-0.7,0-1.2-0.1-1.7-0.4s-0.8-0.6-1-1c-0.2-0.5-0.3-1-0.3-1.7v-4.2H273c-0.2,0-0.4-0.1-0.5-0.2
				c-0.1-0.1-0.2-0.3-0.2-0.4c0-0.2,0.1-0.3,0.2-0.4s0.3-0.2,0.5-0.2h1.1v-1.8c0-0.3,0.1-0.5,0.2-0.6c0.1-0.1,0.3-0.2,0.6-0.2
				s0.4,0.1,0.6,0.2c0.1,0.1,0.2,0.3,0.2,0.6v1.8h2c0.2,0,0.4,0.1,0.5,0.2s0.2,0.2,0.2,0.4c0,0.2-0.1,0.3-0.2,0.4
				c-0.1,0.1-0.3,0.2-0.5,0.2h-2v4c0,0.6,0.1,1.1,0.4,1.4c0.3,0.3,0.7,0.5,1.3,0.5c0.2,0,0.4,0,0.5-0.1c0.1,0,0.3-0.1,0.4-0.1
				c0.1,0,0.2,0,0.3,0.1c0.1,0.1,0.1,0.2,0.1,0.4c0,0.2,0,0.3-0.1,0.4c-0.1,0.1-0.1,0.2-0.3,0.3c-0.1,0-0.3,0.1-0.5,0.1
				C277.4,258.6,277.2,258.6,277.1,258.6z"/>
			<path class="st6" d="M282.8,258.6c-0.7,0-1.2-0.1-1.7-0.4s-0.8-0.6-1-1c-0.2-0.5-0.3-1-0.3-1.7v-4.2h-1.1c-0.2,0-0.4-0.1-0.5-0.2
				c-0.1-0.1-0.2-0.3-0.2-0.4c0-0.2,0.1-0.3,0.2-0.4s0.3-0.2,0.5-0.2h1.1v-1.8c0-0.3,0.1-0.5,0.2-0.6c0.1-0.1,0.3-0.2,0.6-0.2
				s0.4,0.1,0.6,0.2c0.1,0.1,0.2,0.3,0.2,0.6v1.8h2c0.2,0,0.4,0.1,0.5,0.2c0.1,0.1,0.2,0.2,0.2,0.4c0,0.2-0.1,0.3-0.2,0.4
				c-0.1,0.1-0.3,0.2-0.5,0.2h-2v4c0,0.6,0.1,1.1,0.4,1.4c0.3,0.3,0.7,0.5,1.3,0.5c0.2,0,0.4,0,0.5-0.1c0.1,0,0.3-0.1,0.4-0.1
				c0.1,0,0.2,0,0.3,0.1c0.1,0.1,0.1,0.2,0.1,0.4c0,0.2,0,0.3-0.1,0.4c-0.1,0.1-0.1,0.2-0.3,0.3c-0.1,0-0.3,0.1-0.5,0.1
				C283.2,258.6,283,258.6,282.8,258.6z"/>
			<path class="st6" d="M286.2,261.7c-0.2,0-0.4-0.1-0.6-0.2c-0.1-0.1-0.2-0.3-0.2-0.6v-10c0-0.3,0.1-0.5,0.2-0.6
				c0.1-0.1,0.3-0.2,0.6-0.2c0.2,0,0.4,0.1,0.6,0.2c0.1,0.1,0.2,0.3,0.2,0.6v1.5l-0.2-0.3c0.2-0.6,0.5-1.1,1.1-1.5
				c0.5-0.4,1.2-0.6,1.9-0.6c0.7,0,1.4,0.2,1.9,0.5c0.5,0.3,1,0.8,1.3,1.5c0.3,0.6,0.5,1.4,0.5,2.3c0,0.9-0.1,1.6-0.4,2.3
				c-0.3,0.6-0.7,1.1-1.3,1.5c-0.5,0.3-1.2,0.5-1.9,0.5s-1.4-0.2-1.9-0.6c-0.5-0.4-0.9-0.9-1.1-1.5h0.2v4.3c0,0.2-0.1,0.4-0.2,0.6
				C286.7,261.6,286.5,261.7,286.2,261.7z M289.4,257.4c0.5,0,0.9-0.1,1.3-0.4c0.4-0.2,0.7-0.6,0.9-1c0.2-0.5,0.3-1,0.3-1.7
				c0-1-0.2-1.7-0.7-2.3c-0.4-0.5-1-0.8-1.8-0.8c-0.5,0-0.9,0.1-1.3,0.3c-0.4,0.2-0.6,0.6-0.8,1s-0.3,1-0.3,1.7c0,1,0.2,1.8,0.7,2.3
				C288.1,257.2,288.7,257.4,289.4,257.4z"/>
			<path class="st6" d="M298.2,258.6c-0.5,0-1-0.1-1.5-0.2c-0.5-0.1-1-0.3-1.4-0.6c-0.1-0.1-0.2-0.2-0.3-0.3
				c-0.1-0.1-0.1-0.2-0.1-0.4c0-0.1,0.1-0.2,0.1-0.3s0.2-0.1,0.3-0.2c0.1,0,0.2,0,0.4,0.1c0.4,0.2,0.9,0.4,1.3,0.5
				c0.4,0.1,0.8,0.2,1.2,0.2c0.6,0,1.1-0.1,1.4-0.3c0.3-0.2,0.5-0.5,0.5-0.9c0-0.3-0.1-0.6-0.3-0.7c-0.2-0.2-0.5-0.3-1-0.4l-1.6-0.3
				c-0.7-0.2-1.2-0.4-1.6-0.8c-0.4-0.4-0.5-0.8-0.5-1.4c0-0.5,0.1-1,0.4-1.3s0.7-0.7,1.2-0.9c0.5-0.2,1.1-0.3,1.7-0.3
				c0.5,0,1,0.1,1.4,0.2c0.4,0.1,0.8,0.3,1.2,0.6c0.1,0.1,0.2,0.2,0.3,0.3c0,0.1,0,0.2,0,0.4c0,0.1-0.1,0.2-0.2,0.3
				c-0.1,0.1-0.2,0.1-0.3,0.1c-0.1,0-0.3,0-0.4-0.1c-0.3-0.2-0.7-0.4-1-0.5c-0.3-0.1-0.7-0.1-1-0.1c-0.6,0-1.1,0.1-1.4,0.4
				c-0.3,0.2-0.5,0.5-0.5,0.9c0,0.3,0.1,0.5,0.3,0.7c0.2,0.2,0.5,0.3,0.9,0.4l1.6,0.3c0.7,0.2,1.3,0.4,1.7,0.8
				c0.4,0.3,0.6,0.8,0.6,1.4c0,0.8-0.3,1.4-0.9,1.8C300.1,258.4,299.3,258.6,298.2,258.6z"/>
			<path class="st6" d="M304.3,252.2c-0.3,0-0.5-0.1-0.7-0.3s-0.3-0.4-0.3-0.7s0.1-0.5,0.3-0.7s0.4-0.3,0.7-0.3
				c0.3,0,0.6,0.1,0.7,0.3s0.3,0.4,0.3,0.7s-0.1,0.5-0.3,0.7S304.6,252.2,304.3,252.2z M304.3,258.6c-0.3,0-0.5-0.1-0.7-0.3
				s-0.3-0.4-0.3-0.7c0-0.3,0.1-0.5,0.3-0.7c0.2-0.2,0.4-0.3,0.7-0.3c0.3,0,0.6,0.1,0.7,0.3c0.2,0.2,0.3,0.4,0.3,0.7
				c0,0.3-0.1,0.5-0.3,0.7S304.6,258.6,304.3,258.6z"/>
			<path class="st6" d="M308.3,259c-0.1,0.2-0.1,0.3-0.2,0.4c-0.1,0.1-0.2,0.1-0.4,0.1c-0.1,0-0.3,0-0.4-0.1
				c-0.1-0.1-0.2-0.2-0.2-0.3c0-0.1,0-0.3,0-0.5l4-12.4c0.1-0.2,0.1-0.3,0.3-0.3c0.1-0.1,0.2-0.1,0.4-0.1c0.1,0,0.2,0,0.4,0.1
				c0.1,0.1,0.2,0.2,0.2,0.3c0,0.1,0,0.3,0,0.4L308.3,259z"/>
			<path class="st6" d="M312.5,259c-0.1,0.2-0.1,0.3-0.2,0.4c-0.1,0.1-0.2,0.1-0.4,0.1c-0.1,0-0.3,0-0.4-0.1
				c-0.1-0.1-0.2-0.2-0.2-0.3c0-0.1,0-0.3,0-0.5l4-12.4c0.1-0.2,0.1-0.3,0.3-0.3c0.1-0.1,0.2-0.1,0.4-0.1c0.1,0,0.2,0,0.4,0.1
				c0.1,0.1,0.2,0.2,0.2,0.3c0,0.1,0,0.3,0,0.4L312.5,259z"/>
			<path class="st6" d="M320.1,258.6c-0.8,0-1.6-0.2-2.2-0.5c-0.6-0.4-1.1-0.9-1.4-1.5c-0.3-0.6-0.5-1.4-0.5-2.3
				c0-0.7,0.1-1.2,0.3-1.8c0.2-0.5,0.5-1,0.8-1.3s0.8-0.6,1.3-0.8c0.5-0.2,1.1-0.3,1.7-0.3c0.4,0,0.8,0.1,1.3,0.2
				c0.4,0.1,0.8,0.3,1.2,0.6c0.1,0.1,0.2,0.2,0.2,0.3s0,0.2,0,0.4c0,0.1-0.1,0.2-0.2,0.3c-0.1,0.1-0.2,0.1-0.3,0.1s-0.3,0-0.4-0.1
				c-0.3-0.2-0.6-0.3-0.9-0.4c-0.3-0.1-0.6-0.1-0.9-0.1c-0.4,0-0.8,0.1-1.1,0.2c-0.3,0.1-0.6,0.3-0.8,0.6s-0.4,0.6-0.5,0.9
				c-0.1,0.4-0.2,0.8-0.2,1.3c0,1,0.2,1.7,0.7,2.3c0.5,0.5,1.1,0.8,1.9,0.8c0.3,0,0.6,0,0.8-0.1c0.3-0.1,0.6-0.2,0.9-0.4
				c0.1-0.1,0.3-0.1,0.4-0.1c0.1,0,0.2,0.1,0.3,0.2c0.1,0.1,0.1,0.2,0.2,0.3c0,0.1,0,0.2,0,0.4c0,0.1-0.1,0.2-0.2,0.3
				c-0.4,0.3-0.8,0.5-1.2,0.6C320.9,258.6,320.5,258.6,320.1,258.6z"/>
			<path class="st6" d="M325.2,258.6c-0.2,0-0.4-0.1-0.6-0.2c-0.1-0.1-0.2-0.3-0.2-0.6v-10.6c0-0.3,0.1-0.5,0.2-0.6
				c0.1-0.1,0.3-0.2,0.6-0.2c0.2,0,0.4,0.1,0.6,0.2c0.1,0.1,0.2,0.3,0.2,0.6v4.8h-0.2c0.2-0.6,0.6-1.1,1.2-1.5s1.1-0.5,1.8-0.5
				c0.7,0,1.2,0.1,1.6,0.4c0.4,0.2,0.8,0.6,1,1.1c0.2,0.5,0.3,1.1,0.3,1.8v4.4c0,0.3-0.1,0.5-0.2,0.6s-0.3,0.2-0.6,0.2
				s-0.4-0.1-0.6-0.2c-0.1-0.1-0.2-0.3-0.2-0.6v-4.3c0-0.7-0.1-1.3-0.4-1.6c-0.3-0.3-0.7-0.5-1.4-0.5c-0.7,0-1.3,0.2-1.7,0.7
				c-0.4,0.4-0.7,1-0.7,1.8v4C326,258.3,325.7,258.6,325.2,258.6z"/>
			<path class="st6" d="M334.9,248.3c-0.3,0-0.5-0.1-0.7-0.2s-0.3-0.4-0.3-0.7c0-0.3,0.1-0.5,0.3-0.7s0.4-0.2,0.7-0.2
				c0.3,0,0.6,0.1,0.7,0.2c0.2,0.2,0.2,0.4,0.2,0.7c0,0.3-0.1,0.5-0.2,0.7C335.4,248.3,335.2,248.3,334.9,248.3z M334.9,258.6
				c-0.2,0-0.4-0.1-0.6-0.2c-0.1-0.1-0.2-0.3-0.2-0.6V251c0-0.3,0.1-0.5,0.2-0.6c0.1-0.1,0.3-0.2,0.6-0.2c0.2,0,0.4,0.1,0.6,0.2
				c0.1,0.1,0.2,0.3,0.2,0.6v6.8c0,0.3-0.1,0.5-0.2,0.6S335.1,258.6,334.9,258.6z"/>
			<path class="st6" d="M341.5,258.6c-0.7,0-1.2-0.1-1.7-0.4s-0.8-0.6-1-1c-0.2-0.5-0.3-1-0.3-1.7v-4.2h-1.1c-0.2,0-0.4-0.1-0.5-0.2
				c-0.1-0.1-0.2-0.3-0.2-0.4c0-0.2,0.1-0.3,0.2-0.4s0.3-0.2,0.5-0.2h1.1v-1.8c0-0.3,0.1-0.5,0.2-0.6c0.1-0.1,0.3-0.2,0.6-0.2
				s0.4,0.1,0.6,0.2c0.1,0.1,0.2,0.3,0.2,0.6v1.8h2c0.2,0,0.4,0.1,0.5,0.2c0.1,0.1,0.2,0.2,0.2,0.4c0,0.2-0.1,0.3-0.2,0.4
				c-0.1,0.1-0.3,0.2-0.5,0.2h-2v4c0,0.6,0.1,1.1,0.4,1.4c0.3,0.3,0.7,0.5,1.3,0.5c0.2,0,0.4,0,0.5-0.1c0.1,0,0.3-0.1,0.4-0.1
				c0.1,0,0.2,0,0.3,0.1c0.1,0.1,0.1,0.2,0.1,0.4c0,0.2,0,0.3-0.1,0.4c-0.1,0.1-0.1,0.2-0.3,0.3c-0.1,0-0.3,0.1-0.5,0.1
				C341.9,258.6,341.7,258.6,341.5,258.6z"/>
			<path class="st6" d="M344.5,254.6c-0.2,0-0.3-0.1-0.5-0.2c-0.1-0.1-0.2-0.3-0.2-0.5c0-0.2,0.1-0.3,0.2-0.4
				c0.1-0.1,0.3-0.2,0.5-0.2h3.8c0.2,0,0.3,0.1,0.4,0.2c0.1,0.1,0.2,0.3,0.2,0.4c0,0.2-0.1,0.3-0.2,0.5c-0.1,0.1-0.3,0.2-0.4,0.2
				H344.5z"/>
			<path class="st6" d="M354.6,258.6c-0.7,0-1.2-0.1-1.7-0.4s-0.8-0.6-1-1c-0.2-0.5-0.3-1-0.3-1.7v-4.2h-1.1c-0.2,0-0.4-0.1-0.5-0.2
				c-0.1-0.1-0.2-0.3-0.2-0.4c0-0.2,0.1-0.3,0.2-0.4s0.3-0.2,0.5-0.2h1.1v-1.8c0-0.3,0.1-0.5,0.2-0.6c0.1-0.1,0.3-0.2,0.6-0.2
				s0.4,0.1,0.6,0.2c0.1,0.1,0.2,0.3,0.2,0.6v1.8h2c0.2,0,0.4,0.1,0.5,0.2c0.1,0.1,0.2,0.2,0.2,0.4c0,0.2-0.1,0.3-0.2,0.4
				c-0.1,0.1-0.3,0.2-0.5,0.2h-2v4c0,0.6,0.1,1.1,0.4,1.4c0.3,0.3,0.7,0.5,1.3,0.5c0.2,0,0.4,0,0.5-0.1c0.1,0,0.3-0.1,0.4-0.1
				c0.1,0,0.2,0,0.3,0.1c0.1,0.1,0.1,0.2,0.1,0.4c0,0.2,0,0.3-0.1,0.4c-0.1,0.1-0.1,0.2-0.3,0.3c-0.1,0-0.3,0.1-0.5,0.1
				C355,258.6,354.8,258.6,354.6,258.6z"/>
			<path class="st6" d="M359.9,258.6c-0.6,0-1.1-0.1-1.5-0.3c-0.5-0.2-0.8-0.5-1.1-0.9c-0.3-0.4-0.4-0.8-0.4-1.3
				c0-0.6,0.2-1.1,0.5-1.4c0.3-0.3,0.8-0.6,1.5-0.8c0.7-0.2,1.7-0.2,2.9-0.2h0.8v1h-0.8c-0.9,0-1.6,0-2.1,0.1
				c-0.5,0.1-0.9,0.2-1.1,0.4s-0.3,0.5-0.3,0.8c0,0.4,0.2,0.8,0.5,1.1c0.3,0.3,0.7,0.4,1.3,0.4c0.4,0,0.8-0.1,1.1-0.3
				s0.6-0.5,0.8-0.8c0.2-0.4,0.3-0.8,0.3-1.2v-1.9c0-0.7-0.1-1.1-0.4-1.4c-0.3-0.3-0.7-0.4-1.4-0.4c-0.4,0-0.8,0.1-1.2,0.2
				c-0.4,0.1-0.8,0.3-1.2,0.5c-0.2,0.1-0.3,0.1-0.4,0.1c-0.1,0-0.2-0.1-0.3-0.2c-0.1-0.1-0.1-0.2-0.1-0.4c0-0.1,0-0.3,0.1-0.4
				c0.1-0.1,0.2-0.2,0.3-0.3c0.5-0.2,1-0.4,1.5-0.5c0.5-0.1,1-0.2,1.4-0.2c0.7,0,1.3,0.1,1.8,0.3c0.5,0.2,0.8,0.6,1.1,1.1
				c0.2,0.5,0.4,1.1,0.4,1.8v4.5c0,0.3-0.1,0.5-0.2,0.6c-0.1,0.1-0.3,0.2-0.5,0.2c-0.2,0-0.4-0.1-0.5-0.2s-0.2-0.3-0.2-0.6v-1.2h0.2
				c-0.1,0.4-0.3,0.8-0.5,1.1c-0.2,0.3-0.6,0.5-0.9,0.7C360.8,258.6,360.4,258.6,359.9,258.6z"/>
			<path class="st6" d="M368.9,258.6c-0.8,0-1.5-0.3-1.9-0.8c-0.4-0.5-0.7-1.2-0.7-2.2v-8.5c0-0.3,0.1-0.5,0.2-0.6
				c0.1-0.1,0.3-0.2,0.6-0.2c0.2,0,0.4,0.1,0.6,0.2c0.1,0.1,0.2,0.3,0.2,0.6v8.4c0,0.6,0.1,1,0.4,1.3s0.6,0.4,1,0.4
				c0.1,0,0.2,0,0.3,0c0.1,0,0.2,0,0.2,0c0.1,0,0.2,0,0.3,0.1c0.1,0.1,0.1,0.2,0.1,0.5c0,0.2,0,0.4-0.1,0.5
				c-0.1,0.1-0.3,0.2-0.5,0.2c-0.1,0-0.2,0-0.3,0C369.1,258.6,369,258.6,368.9,258.6z"/>
			<path class="st6" d="M372.3,258.6c-0.3,0-0.5-0.1-0.7-0.3s-0.3-0.4-0.3-0.7c0-0.3,0.1-0.5,0.3-0.7c0.2-0.2,0.4-0.3,0.7-0.3
				c0.3,0,0.6,0.1,0.7,0.3c0.2,0.2,0.3,0.4,0.3,0.7c0,0.3-0.1,0.5-0.3,0.7S372.6,258.6,372.3,258.6z"/>
			<path class="st6" d="M378.7,258.6c-0.8,0-1.6-0.2-2.2-0.5c-0.6-0.4-1.1-0.9-1.4-1.5c-0.3-0.6-0.5-1.4-0.5-2.3
				c0-0.7,0.1-1.2,0.3-1.8c0.2-0.5,0.5-1,0.8-1.3s0.8-0.6,1.3-0.8c0.5-0.2,1.1-0.3,1.7-0.3c0.4,0,0.8,0.1,1.3,0.2
				c0.4,0.1,0.8,0.3,1.2,0.6c0.1,0.1,0.2,0.2,0.2,0.3s0,0.2,0,0.4c0,0.1-0.1,0.2-0.2,0.3c-0.1,0.1-0.2,0.1-0.3,0.1s-0.3,0-0.4-0.1
				c-0.3-0.2-0.6-0.3-0.9-0.4c-0.3-0.1-0.6-0.1-0.9-0.1c-0.4,0-0.8,0.1-1.1,0.2c-0.3,0.1-0.6,0.3-0.8,0.6s-0.4,0.6-0.5,0.9
				c-0.1,0.4-0.2,0.8-0.2,1.3c0,1,0.2,1.7,0.7,2.3c0.5,0.5,1.1,0.8,1.9,0.8c0.3,0,0.6,0,0.8-0.1c0.3-0.1,0.6-0.2,0.9-0.4
				c0.1-0.1,0.3-0.1,0.4-0.1c0.1,0,0.2,0.1,0.3,0.2c0.1,0.1,0.1,0.2,0.2,0.3c0,0.1,0,0.2,0,0.4c0,0.1-0.1,0.2-0.2,0.3
				c-0.4,0.3-0.8,0.5-1.2,0.6C379.5,258.6,379.1,258.6,378.7,258.6z"/>
			<path class="st6" d="M386.4,258.6c-0.8,0-1.5-0.2-2.1-0.5c-0.6-0.3-1.1-0.8-1.4-1.5s-0.5-1.4-0.5-2.3c0-0.7,0.1-1.2,0.3-1.8
				c0.2-0.5,0.5-1,0.8-1.3c0.3-0.4,0.8-0.7,1.3-0.9c0.5-0.2,1-0.3,1.6-0.3c0.8,0,1.5,0.2,2.1,0.5c0.6,0.4,1.1,0.8,1.4,1.5
				s0.5,1.4,0.5,2.3c0,0.7-0.1,1.2-0.3,1.8c-0.2,0.5-0.5,1-0.8,1.4c-0.4,0.4-0.8,0.7-1.3,0.9C387.5,258.5,387,258.6,386.4,258.6z
				 M386.4,257.4c0.5,0,0.9-0.1,1.3-0.4c0.4-0.2,0.6-0.6,0.8-1c0.2-0.5,0.3-1,0.3-1.7c0-1-0.2-1.7-0.7-2.3c-0.4-0.5-1-0.8-1.8-0.8
				c-0.5,0-0.9,0.1-1.3,0.3c-0.4,0.2-0.7,0.6-0.9,1s-0.3,1-0.3,1.7c0,1,0.2,1.8,0.7,2.3C385,257.2,385.6,257.4,386.4,257.4z"/>
			<path class="st6" d="M393.1,258.6c-0.2,0-0.4-0.1-0.6-0.2c-0.1-0.1-0.2-0.3-0.2-0.6v-6.9c0-0.3,0.1-0.5,0.2-0.6
				c0.1-0.1,0.3-0.2,0.6-0.2c0.2,0,0.4,0.1,0.5,0.2c0.1,0.1,0.2,0.3,0.2,0.6v1.4l-0.2-0.3c0.2-0.6,0.6-1.1,1-1.4
				c0.5-0.3,1.1-0.5,1.7-0.5c0.7,0,1.3,0.2,1.7,0.5c0.4,0.3,0.7,0.8,0.9,1.5h-0.2c0.2-0.6,0.6-1.1,1.1-1.5c0.5-0.4,1.1-0.5,1.8-0.5
				c0.6,0,1.1,0.1,1.5,0.4c0.4,0.2,0.7,0.6,0.9,1.1s0.3,1.1,0.3,1.8v4.4c0,0.3-0.1,0.5-0.2,0.6c-0.1,0.1-0.3,0.2-0.6,0.2
				c-0.2,0-0.4-0.1-0.6-0.2c-0.1-0.1-0.2-0.3-0.2-0.6v-4.4c0-0.7-0.1-1.3-0.4-1.6s-0.7-0.5-1.3-0.5c-0.6,0-1.2,0.2-1.5,0.7
				c-0.4,0.4-0.6,1.1-0.6,1.8v4c0,0.3-0.1,0.5-0.2,0.6c-0.1,0.1-0.3,0.2-0.6,0.2s-0.4-0.1-0.6-0.2s-0.2-0.3-0.2-0.6v-4.4
				c0-0.7-0.1-1.3-0.4-1.6s-0.7-0.5-1.3-0.5c-0.6,0-1.2,0.2-1.5,0.7c-0.4,0.4-0.6,1.1-0.6,1.8v4
				C393.9,258.3,393.6,258.6,393.1,258.6z"/>
			<path class="st6" d="M406.7,259c-0.1,0.2-0.1,0.3-0.2,0.4c-0.1,0.1-0.2,0.1-0.4,0.1c-0.1,0-0.3,0-0.4-0.1
				c-0.1-0.1-0.2-0.2-0.2-0.3c0-0.1,0-0.3,0-0.5l4-12.4c0.1-0.2,0.1-0.3,0.3-0.3c0.1-0.1,0.2-0.1,0.4-0.1c0.1,0,0.2,0,0.4,0.1
				c0.1,0.1,0.2,0.2,0.2,0.3c0,0.1,0,0.3,0,0.4L406.7,259z"/>
			<path class="st6" d="M413.9,258.6c-0.7,0-1.4-0.2-1.9-0.5c-0.5-0.3-1-0.8-1.3-1.5c-0.3-0.6-0.5-1.4-0.5-2.3
				c0-0.9,0.1-1.6,0.4-2.3c0.3-0.6,0.7-1.1,1.3-1.5c0.5-0.3,1.2-0.5,1.9-0.5c0.7,0,1.4,0.2,1.9,0.5c0.5,0.4,0.9,0.9,1.1,1.5h-0.2
				v-4.9c0-0.3,0.1-0.5,0.2-0.6s0.3-0.2,0.6-0.2s0.4,0.1,0.6,0.2c0.1,0.1,0.2,0.3,0.2,0.6v10.6c0,0.3-0.1,0.5-0.2,0.6
				c-0.1,0.1-0.3,0.2-0.6,0.2c-0.2,0-0.4-0.1-0.6-0.2s-0.2-0.3-0.2-0.6v-1.5l0.2,0.3c-0.2,0.6-0.5,1.1-1.1,1.5
				C415.3,258.5,414.7,258.6,413.9,258.6z M414.3,257.4c0.5,0,0.9-0.1,1.3-0.4c0.4-0.2,0.6-0.6,0.8-1c0.2-0.5,0.3-1,0.3-1.7
				c0-1-0.2-1.7-0.7-2.3c-0.4-0.5-1-0.8-1.8-0.8c-0.5,0-0.9,0.1-1.3,0.3c-0.4,0.2-0.7,0.6-0.9,1s-0.3,1-0.3,1.7c0,1,0.2,1.8,0.7,2.3
				C413,257.2,413.6,257.4,414.3,257.4z"/>
			<path class="st6" d="M421.8,258.5c-0.3,0-0.5-0.1-0.6-0.2s-0.2-0.4-0.2-0.6v-10.2c0-0.3,0.1-0.5,0.2-0.6c0.1-0.1,0.4-0.2,0.6-0.2
				h3.3c2,0,3.5,0.5,4.5,1.5c1.1,1,1.6,2.5,1.6,4.4c0,1-0.1,1.8-0.4,2.6s-0.7,1.4-1.2,1.9c-0.5,0.5-1.2,0.9-1.9,1.2
				c-0.8,0.3-1.6,0.4-2.6,0.4H421.8z M422.5,257.1h2.4c0.8,0,1.4-0.1,2-0.3c0.6-0.2,1-0.5,1.4-0.9c0.4-0.4,0.7-0.9,0.9-1.4
				c0.2-0.6,0.3-1.3,0.3-2c0-1.5-0.4-2.7-1.1-3.5c-0.8-0.8-1.9-1.2-3.4-1.2h-2.4V257.1z"/>
			<path class="st6" d="M434.4,258.6c-0.3,0-0.5-0.1-0.6-0.2s-0.2-0.4-0.2-0.6v-10.4c0-0.3,0.1-0.5,0.2-0.6c0.1-0.1,0.4-0.2,0.6-0.2
				h6.1c0.2,0,0.4,0.1,0.5,0.2c0.1,0.1,0.2,0.3,0.2,0.5c0,0.2-0.1,0.4-0.2,0.5c-0.1,0.1-0.3,0.2-0.5,0.2h-5.3v4h5
				c0.2,0,0.4,0.1,0.5,0.2c0.1,0.1,0.2,0.3,0.2,0.5c0,0.2-0.1,0.4-0.2,0.5c-0.1,0.1-0.3,0.2-0.5,0.2h-5v4.6
				C435.1,258.3,434.9,258.6,434.4,258.6z"/>
			<path class="st6" d="M443.3,258.6c-0.3,0-0.5-0.1-0.6-0.2c-0.1-0.1-0.2-0.3-0.2-0.6v-6.9c0-0.3,0.1-0.5,0.2-0.6
				c0.1-0.1,0.3-0.2,0.6-0.2c0.2,0,0.4,0.1,0.5,0.2c0.1,0.1,0.2,0.3,0.2,0.6v1.3h-0.2c0.2-0.7,0.5-1.2,1-1.5
				c0.5-0.3,1.1-0.5,1.9-0.6c0.2,0,0.3,0,0.4,0.1c0.1,0.1,0.2,0.3,0.2,0.5c0,0.2,0,0.4-0.2,0.5c-0.1,0.1-0.3,0.2-0.5,0.2l-0.3,0
				c-0.7,0.1-1.3,0.3-1.7,0.7c-0.4,0.4-0.6,1-0.6,1.7v4c0,0.3-0.1,0.5-0.2,0.6C443.7,258.5,443.6,258.6,443.3,258.6z"/>
			<path class="st6" d="M448.8,254.6c-0.2,0-0.3-0.1-0.5-0.2c-0.1-0.1-0.2-0.3-0.2-0.5c0-0.2,0.1-0.3,0.2-0.4
				c0.1-0.1,0.3-0.2,0.5-0.2h3.8c0.2,0,0.3,0.1,0.4,0.2c0.1,0.1,0.2,0.3,0.2,0.4c0,0.2-0.1,0.3-0.2,0.5c-0.1,0.1-0.3,0.2-0.4,0.2
				H448.8z"/>
			<path class="st6" d="M456.5,258.5c-0.3,0-0.5-0.1-0.6-0.2c-0.1-0.1-0.2-0.3-0.2-0.5c0-0.1,0-0.3,0.1-0.4s0.2-0.3,0.3-0.4l3.7-4
				c0.6-0.6,1-1.2,1.2-1.7c0.2-0.5,0.4-1,0.4-1.5c0-0.7-0.2-1.2-0.6-1.5c-0.4-0.3-1-0.5-1.8-0.5c-0.5,0-0.9,0.1-1.4,0.2
				c-0.4,0.2-0.9,0.4-1.3,0.7c-0.2,0.1-0.3,0.2-0.4,0.2c-0.1,0-0.3-0.1-0.3-0.2s-0.2-0.2-0.2-0.3c0-0.1,0-0.3,0-0.4s0.1-0.3,0.3-0.4
				c0.5-0.4,1-0.6,1.6-0.8c0.6-0.2,1.2-0.3,1.9-0.3c0.8,0,1.5,0.1,2.1,0.4c0.6,0.3,1,0.6,1.3,1.1c0.3,0.5,0.4,1.1,0.4,1.8
				c0,0.5-0.1,0.9-0.2,1.4c-0.2,0.5-0.4,0.9-0.7,1.4c-0.3,0.5-0.7,1-1.2,1.5l-3.5,3.7v-0.5h5.5c0.2,0,0.4,0.1,0.5,0.2
				s0.2,0.3,0.2,0.5s-0.1,0.4-0.2,0.5c-0.1,0.1-0.3,0.2-0.5,0.2H456.5z"/>
			<path class="st6" d="M469.1,258.6c-0.7,0-1.2-0.1-1.7-0.4s-0.8-0.6-1-1c-0.2-0.5-0.3-1-0.3-1.7v-4.2H465c-0.2,0-0.4-0.1-0.5-0.2
				c-0.1-0.1-0.2-0.3-0.2-0.4c0-0.2,0.1-0.3,0.2-0.4s0.3-0.2,0.5-0.2h1.1v-1.8c0-0.3,0.1-0.5,0.2-0.6c0.1-0.1,0.3-0.2,0.6-0.2
				s0.4,0.1,0.6,0.2c0.1,0.1,0.2,0.3,0.2,0.6v1.8h2c0.2,0,0.4,0.1,0.5,0.2c0.1,0.1,0.2,0.2,0.2,0.4c0,0.2-0.1,0.3-0.2,0.4
				c-0.1,0.1-0.3,0.2-0.5,0.2h-2v4c0,0.6,0.1,1.1,0.4,1.4c0.3,0.3,0.7,0.5,1.3,0.5c0.2,0,0.4,0,0.5-0.1c0.1,0,0.3-0.1,0.4-0.1
				c0.1,0,0.2,0,0.3,0.1c0.1,0.1,0.1,0.2,0.1,0.4c0,0.2,0,0.3-0.1,0.4c-0.1,0.1-0.1,0.2-0.3,0.3c-0.1,0-0.3,0.1-0.5,0.1
				C469.5,258.6,469.3,258.6,469.1,258.6z"/>
			<path class="st6" d="M472.5,258.6c-0.3,0-0.5-0.1-0.6-0.2c-0.1-0.1-0.2-0.3-0.2-0.6v-6.9c0-0.3,0.1-0.5,0.2-0.6
				c0.1-0.1,0.3-0.2,0.6-0.2c0.2,0,0.4,0.1,0.5,0.2c0.1,0.1,0.2,0.3,0.2,0.6v1.3h-0.2c0.2-0.7,0.5-1.2,1-1.5
				c0.5-0.3,1.1-0.5,1.9-0.6c0.2,0,0.3,0,0.4,0.1c0.1,0.1,0.2,0.3,0.2,0.5c0,0.2,0,0.4-0.2,0.5c-0.1,0.1-0.3,0.2-0.5,0.2l-0.3,0
				c-0.7,0.1-1.3,0.3-1.7,0.7c-0.4,0.4-0.6,1-0.6,1.7v4c0,0.3-0.1,0.5-0.2,0.6C473,258.5,472.8,258.6,472.5,258.6z"/>
			<path class="st6" d="M478.2,258.6c-0.2,0-0.3-0.1-0.4-0.2c-0.1-0.1-0.2-0.2-0.2-0.4c0-0.2,0.1-0.3,0.2-0.5l2.9-3.6v0.8l-2.7-3.4
				c-0.2-0.2-0.2-0.4-0.2-0.5c0-0.2,0.1-0.3,0.2-0.4c0.1-0.1,0.3-0.2,0.4-0.2c0.2,0,0.4,0,0.5,0.1c0.1,0.1,0.3,0.2,0.4,0.3l2.3,3
				H481l2.3-3c0.1-0.1,0.2-0.3,0.4-0.3c0.1-0.1,0.3-0.1,0.5-0.1c0.2,0,0.3,0.1,0.4,0.2s0.2,0.2,0.2,0.4c0,0.2-0.1,0.3-0.2,0.5
				l-2.7,3.4v-0.7l2.9,3.6c0.2,0.2,0.2,0.4,0.2,0.5c0,0.2-0.1,0.3-0.2,0.4c-0.1,0.1-0.3,0.2-0.4,0.2c-0.2,0-0.4,0-0.5-0.1
				c-0.1-0.1-0.3-0.2-0.4-0.3L481,255h0.5l-2.5,3.2c-0.1,0.1-0.2,0.2-0.4,0.3S478.4,258.6,478.2,258.6z"/>
			<path class="st6" d="M486.7,259.5c-0.2,0-0.3,0-0.4-0.1c-0.1-0.1-0.2-0.2-0.2-0.4c0-0.1,0.1-0.3,0.2-0.3c0.1-0.1,0.2-0.1,0.4-0.1
				h7c0.1,0,0.3,0,0.4,0.1c0.1,0.1,0.2,0.2,0.2,0.3c0,0.1-0.1,0.3-0.2,0.4c-0.1,0.1-0.2,0.1-0.4,0.1H486.7z"/>
		</g>
	</g>
</g>
<g id="Envelope_x5F_Top">
	<path class="st7" d="M580.7,68.2c-0.2,1.1,0.2,2.3-0.3,3.4c-0.5,0.1-0.9-0.2-1.3-0.4c-8.4-4.1-16.7-8.1-25.1-12.2
		c-0.4-0.2-0.8-0.3-1.1-0.7c-0.3-0.5-0.2-0.9,0-1.4c1.4-2.6,2.7-5.4,4-8.1c3-6.2,6-12.3,9-18.5c0.3-0.5,0.3-1.3,1.2-1.4L580.7,68.2
		L580.7,68.2z"/>
	<path class="st7" d="M502.9,98.4c-1.1-0.5-1.5-1.7-2.3-2.5L487,56.7c0.6-0.4,1.1,0.1,1.6,0.3c8.8,4.3,17.7,8.6,26.5,12.9
		c0.5,0.3,0.9,0.7,1.1,1.2c0.1,0.7-0.2,1.2-0.5,1.7c-3.9,8.1-7.9,16.3-11.8,24.4C503.6,97.6,503.4,98.1,502.9,98.4L502.9,98.4z"/>
	<path class="st8" d="M567.1,28.9c-0.3,0.5-0.6,1-0.8,1.5c-4.1,8.4-8.2,16.9-12.3,25.3c-0.2,0.5-0.4,1-0.8,1.3
		c-0.5-0.3-0.5-0.9-0.5-1.4c-0.2-2.3-0.5-4.5-1.5-6.5c0-0.9,0.6-1.5,1-2.3c3.6-7.4,7.2-14.9,10.8-22.3c0.3-0.5,0.3-1.3,1.2-1.4
		c0.5,0.6,1,1.2,1.5,1.8L567.1,28.9L567.1,28.9z"/>
	<path class="st9" d="M514.9,70c-0.5-0.2-1-0.4-1.6-0.7c-8.3-4-16.6-8-24.9-12c-0.5-0.2-1-0.4-1.6-0.6c-0.5-1.3-0.9-2.7-1.4-4
		c0-0.8,0.1-1.6,0.1-2.4c0.5-0.4,1,0,1.4,0.2c7.9,3.8,15.7,7.6,23.6,11.4c0.4,0.2,0.9,0.4,1.1,0.8c0.4,2.1,1.6,3.9,2.7,5.8
		C514.8,69,515.2,69.4,514.9,70L514.9,70z"/>
	<path class="st7" d="M578.5,75.6c-1,1.4-2.4,2.3-4.1,2.9c-20.9,7.2-41.7,14.4-62.6,21.7c-1.7,0.6-3.3,0.7-5,0.3
		c0.2-0.9,0.8-1.7,1.2-2.5c3.5-7.2,7-14.5,10.5-21.7c0.3-0.6,0.4-1.4,1.2-1.6c0.7,0.1,1.2,0.6,1.7,0.9c4.3,2.8,8.8,5.1,13.8,6.2
		c6.1,1.3,4.9,1.5,8.9-3.1c3.2-3.8,5.4-8.2,6.9-13c0.2-0.8,0.4-1.6,0.8-2.2c0.8-0.5,1.4,0.1,2.1,0.4c7.4,3.6,14.8,7.2,22.2,10.8
		C577.1,74.8,577.9,75,578.5,75.6L578.5,75.6z"/>
	<path class="st9" d="M578.5,75.6c-0.7,0.1-1.2-0.3-1.7-0.5c-7.7-3.7-15.4-7.5-23-11.2c-0.5-0.2-0.9-0.6-1.6-0.5
		c-0.1-1.8,0.1-3.5,0.9-5.1c9.1,4.4,18.3,8.7,27.3,13.3C580.2,73.1,579.4,74.4,578.5,75.6L578.5,75.6z"/>
	<path class="st9" d="M519.8,74.6c-1.8,3.6-3.5,7.2-5.3,10.7c-2.2,4.6-4.4,9.1-6.7,13.7c-0.2,0.5-0.4,1.1-1,1.4
		c-1.5-0.3-2.8-0.9-3.9-2c0.2-0.5,0.4-1,0.7-1.5c3.9-8.1,7.9-16.2,11.8-24.3c0.2-0.5,0.4-0.9,0.6-1.4c0.3-0.2,0.6,0,0.7,0.2
		C517.7,72.5,519.2,73.1,519.8,74.6L519.8,74.6z"/>
	<path class="st10" d="M511.4,62.5c-6.6-3.2-13.2-6.4-19.8-9.6c-1.9-0.9-3.8-2-5.9-2.7c0.5-3.9,2.4-6.6,6.2-7.9
		c20.8-7.2,41.7-14.4,62.5-21.7c3.7-1.3,7-0.5,9.8,2.3c-0.5,0.4-0.6,0.9-0.8,1.4c-3.7,7.6-7.4,15.2-11.1,22.8
		c-0.2,0.5-0.4,1.1-0.9,1.4c-0.6-0.1-0.8-0.6-1.1-1c-5.1-6.8-15.6-5.7-19.3,1.9c-0.6,1.3-1.6,1.6-2.9,1c-8.3-3.9-16.1,2.5-16.2,10.1
		C511.7,61.4,511.9,62,511.4,62.5L511.4,62.5z"/>
	<path class="st11" d="M511.4,62.5c-0.3-3.5,0.5-6.7,2.8-9.3c3.7-4.2,9.2-5.3,14.2-2.8c1,0.5,1.5,0.7,2.1-0.6
		c1.9-4.2,5.2-6.6,9.9-6.9c4.8-0.3,8.4,1.8,11,5.8c1.3,2.1,1.5,4.4,1.7,6.7c0,0.5,0.1,1,0.1,1.5c-0.1,0.4-0.3,0.8-0.1,1.2
		c-0.3,1.7-0.6,3.4-0.9,5.1c-1.9,7-5.2,13.3-10.4,18.4c-0.7,0.7-1.4,0.9-2.4,0.8c-7-0.8-13.2-3.6-18.9-7.6c-0.2-0.2-0.5-0.3-0.7-0.5
		c-1.3-1.2-2.5-2.3-3.8-3.5c-0.3-0.4-0.7-0.8-1-1.1c-0.7-1.1-1.3-2.2-2-3.2C512.1,65.5,511.7,64,511.4,62.5L511.4,62.5z"/>
</g>
<g id="Enveloper_x5F_bottom">
	<path class="st7" d="M109.3,453.9c-0.2,1.1,0.2,2.3-0.3,3.4c-0.5,0.1-0.9-0.2-1.3-0.4c-8.4-4.1-16.7-8.1-25.1-12.2
		c-0.4-0.2-0.8-0.3-1.1-0.7c-0.3-0.5-0.2-0.9,0-1.4c1.4-2.6,2.7-5.4,4-8.1c3-6.2,6-12.3,9-18.5c0.3-0.5,0.3-1.3,1.2-1.4L109.3,453.9
		L109.3,453.9z"/>
	<path class="st7" d="M31.5,484.1c-1.1-0.5-1.5-1.7-2.3-2.5l-13.6-39.3c0.6-0.4,1.1,0.1,1.6,0.3c8.8,4.3,17.7,8.6,26.5,12.9
		c0.5,0.3,0.9,0.7,1.1,1.2c0.1,0.7-0.2,1.2-0.5,1.7c-3.9,8.1-7.9,16.3-11.8,24.4C32.1,483.3,32,483.8,31.5,484.1L31.5,484.1z"/>
	<path class="st8" d="M95.7,414.6c-0.3,0.5-0.6,1-0.8,1.5c-4.1,8.4-8.2,16.9-12.3,25.3c-0.2,0.5-0.4,1-0.8,1.3
		c-0.5-0.3-0.5-0.9-0.5-1.4c-0.2-2.3-0.5-4.5-1.5-6.5c0-0.9,0.6-1.5,1-2.3c3.6-7.4,7.2-14.9,10.8-22.3c0.3-0.5,0.3-1.3,1.2-1.4
		c0.5,0.6,1,1.2,1.5,1.8L95.7,414.6L95.7,414.6z"/>
	<path class="st9" d="M43.5,455.7c-0.5-0.2-1-0.4-1.6-0.7c-8.3-4-16.6-8-24.9-12c-0.5-0.2-1-0.4-1.6-0.6c-0.5-1.3-0.9-2.7-1.4-4
		c0-0.8,0.1-1.6,0.1-2.4c0.5-0.4,1,0,1.4,0.2c7.9,3.8,15.7,7.6,23.6,11.4c0.4,0.2,0.9,0.4,1.1,0.8c0.4,2.1,1.6,3.9,2.7,5.8
		C43.3,454.7,43.8,455.1,43.5,455.7L43.5,455.7z"/>
	<path class="st7" d="M107.1,461.3c-1,1.4-2.4,2.3-4.1,2.9c-20.9,7.2-41.7,14.4-62.6,21.7c-1.7,0.6-3.3,0.7-5,0.3
		c0.2-0.9,0.8-1.7,1.2-2.5c3.5-7.2,7-14.5,10.5-21.7c0.3-0.6,0.4-1.4,1.2-1.6c0.7,0.1,1.2,0.6,1.7,0.9c4.3,2.8,8.8,5.1,13.8,6.2
		c6.1,1.3,4.9,1.5,8.9-3.1c3.2-3.8,5.4-8.2,6.9-13c0.2-0.8,0.4-1.6,0.8-2.2c0.8-0.5,1.4,0.1,2.1,0.4c7.4,3.6,14.8,7.2,22.2,10.8
		C105.7,460.5,106.5,460.7,107.1,461.3L107.1,461.3z"/>
	<path class="st9" d="M107.1,461.3c-0.7,0.1-1.2-0.3-1.7-0.5c-7.7-3.7-15.4-7.5-23-11.2c-0.5-0.2-0.9-0.6-1.6-0.5
		c-0.1-1.8,0.1-3.5,0.9-5.1c9.1,4.4,18.3,8.7,27.3,13.3C108.7,458.8,108,460.1,107.1,461.3L107.1,461.3z"/>
	<path class="st9" d="M48.3,460.3c-1.8,3.6-3.5,7.2-5.3,10.7c-2.2,4.6-4.4,9.1-6.7,13.7c-0.2,0.5-0.4,1.1-1,1.4
		c-1.5-0.3-2.8-0.9-3.9-2c0.2-0.5,0.4-1,0.7-1.5c3.9-8.1,7.9-16.2,11.8-24.3c0.2-0.5,0.4-0.9,0.6-1.4c0.3-0.2,0.6,0,0.7,0.2
		C46.3,458.2,47.8,458.8,48.3,460.3L48.3,460.3z"/>
	<path class="st10" d="M40,448.2c-6.6-3.2-13.2-6.4-19.8-9.6c-1.9-0.9-3.8-2-5.9-2.7c0.5-3.9,2.4-6.6,6.2-7.9
		c20.8-7.2,41.7-14.4,62.5-21.7c3.7-1.3,7-0.5,9.8,2.3c-0.5,0.4-0.6,0.9-0.8,1.4c-3.7,7.6-7.4,15.2-11.1,22.8
		c-0.2,0.5-0.4,1.1-0.9,1.4c-0.6-0.1-0.8-0.6-1.1-1c-5.1-6.8-15.6-5.7-19.3,1.9c-0.6,1.3-1.6,1.6-2.9,1c-8.3-3.9-16.1,2.5-16.2,10.1
		C40.3,447.1,40.5,447.7,40,448.2L40,448.2z"/>
	<path class="st11" d="M40,448.2c-0.3-3.5,0.5-6.7,2.8-9.3c3.7-4.2,9.2-5.3,14.2-2.8c1,0.5,1.5,0.7,2.1-0.6c1.9-4.2,5.2-6.6,9.9-6.9
		c4.8-0.3,8.4,1.8,11,5.8c1.3,2.1,1.5,4.4,1.7,6.7c0,0.5,0.1,1,0.1,1.5c-0.1,0.4-0.3,0.8-0.1,1.2c-0.3,1.7-0.6,3.4-0.9,5.1
		c-1.9,7-5.2,13.3-10.4,18.4c-0.7,0.7-1.4,0.9-2.4,0.8c-7-0.8-13.2-3.6-18.9-7.6c-0.2-0.2-0.5-0.3-0.7-0.5c-1.3-1.2-2.5-2.3-3.8-3.5
		c-0.3-0.4-0.7-0.8-1-1.1c-0.7-1.1-1.3-2.2-2-3.2C40.7,451.2,40.3,449.7,40,448.2L40,448.2z"/>
</g>
</svg>
